<?xml version="1.0" encoding="utf-8"?>
<!-- Generator: Adobe Illustrator 23.0.6, SVG Export Plug-In . SVG Version: 6.00 Build 0)  -->
<svg version="1.1" id="Lag_1" xmlns="http://www.w3.org/2000/svg" xmlns:xlink="http://www.w3.org/1999/xlink" x="0px" y="0px"
	 viewBox="0 0 452.1 265.4" style="enable-background:new 0 0 452.1 265.4;" xml:space="preserve">
<style type="text/css">
	.st0{fill:none;stroke:#000000;stroke-width:2.8346;stroke-miterlimit:10;}
	.st1{fill:#026634;}
	.st2{enable-background:new    ;}
	.st3{fill:#FFFFFF;}
	.st4{fill:#FFFFFF;stroke:#1D1E1C;stroke-width:2.8346;stroke-miterlimit:10;}
</style>
<g>
	<g>
		<circle class="st0" cx="22.9" cy="40.2" r="21.5"/>
		<path class="st1" d="M48.1,81.9c2.8,0.9,5.7,1.8,8.5,2.7c4.2,1.3,9.5-1.2,11.3-5.3c0.2-0.5,0.4-1.1,0.7-1.6
			c0.6-1.1,1.6-1.8,2.9-1.7c1.3,0.2,2.4,0.8,2.9,2.1c0.3,0.9,0.8,1.7,1.9,1.7c1.2,0.1,2-0.6,2.6-1.6c0.8-1.6,2-2.2,3.6-1.6
			c1.1,0.4,2.1,0.3,3.1-0.1c1.3-0.5,2.6-1,3.9-1.5c1.6-0.7,3.1,0.1,4,1.6c1.2,2,2.2,4.3,4.7,4.9c0.8,0.2,1.2,0.9,1.6,1.5
			c0.7,0.9,1.4,1.2,2.6,0.7c1.8-0.7,3.7-1.2,5.3,0.8c0.7,0.9,1.7,0.5,2.6,0.1c2.2-1,4.2-1.2,5.7,1.1c0.3,0.5,0.9,0.3,1.3,0.2
			c2.6-0.8,5.2-1.7,7.7-3c1.1-0.6,1.5-1.3,1.3-2.5c-0.3-1.4-0.6-2.7-1-4.1c-0.4-1.1-1-2-2.2-2.4c-11.2-4-22.5-8-33.7-12
			c-0.7-0.3-1.4-0.4-2.2-0.4c-2.4,0.1-3.1-0.9-2.5-3.1c0.3-0.9,0.9-1.8-0.1-2.7S82.7,54,81,54.6c-2.6,1-4.5-0.9-3.8-3.7
			c0.5-2,0.6-4,0.1-5.9c-0.9-3.2-3.2-5.2-6.3-6.2c-6-1.7-12-3.5-17.9-5.4c-3.6-1.2-6.5-0.1-8.9,2.5c-1.1,1.2-2.2,2.2-3.6,3.1
			C33.5,43.5,30.4,50.3,30,58.5c-0.2,3.3,0.1,6.5,2.1,9.3c0.3,0.4,0.2,0.9,0.2,1.4c-0.3,5,1.8,8.3,6.6,9.8
			C41.9,80,45,80.9,48.1,81.9z M48,56.1c-0.8,2.5-1.6,5-2.4,7.6c-0.3,1.1-0.8,1.5-2,1.1c-2.2-0.8-4.5-1.5-6.8-2.1
			c-1-0.3-1.5-0.9-1.5-1.9c-0.3-5.8,1.4-11,4.9-15.7c0.6-0.8,1.4-1,2.4-0.7c2.2,0.7,4.4,1.5,6.6,2.1c1.3,0.4,1.4,1,1,2.2
			C49.5,51.2,48.8,53.7,48,56.1z"/>
		<g class="st2">
			<path class="st3" d="M57.4,59.3c-0.3,0.3-0.6,0.4-1,0.5c-0.4,0.1-0.9,0-1.4-0.1l-1-0.3l-0.7,2.4l-1.6-0.5l2.1-6.6l2.6,0.8
				c0.5,0.2,0.9,0.4,1.2,0.7c0.3,0.3,0.5,0.6,0.6,1c0.1,0.4,0.1,0.8-0.1,1.2C57.8,58.7,57.6,59,57.4,59.3z M55.9,58.3
				c0.2-0.1,0.3-0.3,0.4-0.5c0.1-0.3,0.1-0.5,0-0.7c-0.1-0.2-0.3-0.3-0.6-0.4l-0.9-0.3L54.3,58l0.9,0.3
				C55.5,58.4,55.7,58.4,55.9,58.3z"/>
			<path class="st3" d="M61,56.9l-1.2,3.9c-0.1,0.4-0.1,0.7,0,1c0.1,0.3,0.4,0.5,0.8,0.6c0.4,0.1,0.7,0.1,1,0
				c0.3-0.1,0.5-0.4,0.6-0.8l1.2-3.9l1.6,0.5l-1.2,3.9c-0.2,0.6-0.5,1-0.8,1.4c-0.4,0.3-0.8,0.5-1.3,0.6c-0.5,0.1-1,0-1.5-0.1
				s-1-0.4-1.3-0.7c-0.3-0.3-0.6-0.7-0.7-1.2c-0.1-0.5-0.1-1,0.1-1.6l1.2-3.9L61,56.9z"/>
			<path class="st3" d="M69.8,63.9c0.1,0.4,0.1,0.7,0,1.1c-0.2,0.5-0.5,0.9-1,1.1c-0.5,0.2-1.1,0.2-1.8,0l-3.1-1l2.1-6.6l3,0.9
				c0.7,0.2,1.1,0.5,1.4,1c0.3,0.4,0.3,0.9,0.2,1.4c-0.1,0.4-0.3,0.7-0.6,0.9c-0.3,0.2-0.6,0.3-1,0.3C69.4,63.2,69.6,63.5,69.8,63.9
				z M67.8,64.7c0.2-0.1,0.3-0.2,0.4-0.5s0.1-0.4-0.1-0.6c-0.1-0.2-0.3-0.3-0.6-0.4l-1.2-0.4L66,64.3l1.2,0.4
				C67.4,64.8,67.7,64.8,67.8,64.7z M66.8,61.7l1,0.3c0.3,0.1,0.5,0.1,0.7,0c0.2-0.1,0.3-0.2,0.4-0.4c0.1-0.2,0.1-0.4,0-0.6
				c-0.1-0.2-0.3-0.3-0.5-0.4l-1-0.3L66.8,61.7z"/>
			<path class="st3" d="M72.1,66.3l2.1,0.7l-0.4,1.2l-3.7-1.2l2.1-6.6l1.6,0.5L72.1,66.3z"/>
			<path class="st3" d="M78.3,62.4L76.2,69l-1.6-0.5l2.1-6.6L78.3,62.4z"/>
			<path class="st3" d="M79.1,64.4c0.4-0.4,1-0.7,1.6-0.8c0.6-0.1,1.2-0.1,1.8,0.1c0.8,0.2,1.4,0.7,1.8,1.3s0.6,1.3,0.6,2l-1.8-0.6
				c0-0.3-0.2-0.6-0.4-0.8s-0.4-0.4-0.8-0.5c-0.5-0.2-0.9-0.1-1.4,0.1c-0.4,0.2-0.7,0.7-0.9,1.2c-0.2,0.6-0.2,1.1,0,1.5
				c0.2,0.4,0.5,0.7,1,0.9c0.3,0.1,0.6,0.1,0.9,0c0.3-0.1,0.5-0.2,0.8-0.5l1.8,0.6c-0.4,0.7-1,1.1-1.6,1.3s-1.4,0.2-2.2,0
				c-0.6-0.2-1.2-0.5-1.6-1c-0.4-0.4-0.7-1-0.8-1.6c-0.1-0.6-0.1-1.2,0.1-1.9S78.7,64.8,79.1,64.4z"/>
		</g>
		<path d="M54.2,47.8c3,0,5.9,0,8.9,0c4.4,0,8.7-4,9.1-8.4c0.1-0.6,0.1-1.2,0.2-1.8c0.3-1.2,1-2.2,2.3-2.5s2.5,0,3.3,1.1
			c0.6,0.8,1.2,1.4,2.3,1.1c1.2-0.3,1.7-1.2,1.9-2.3c0.3-1.7,1.3-2.7,2.9-2.6c1.2,0.1,2.1-0.4,2.9-1.1c1.1-0.9,2.2-1.7,3.3-2.6
			c1.3-1.1,3-0.8,4.3,0.3c1.7,1.5,3.3,3.4,6,3.3c0.8,0,1.4,0.5,2,0.9c0.9,0.6,1.7,0.8,2.7-0.1c1.5-1.2,3.2-2.3,5.3-0.8
			c0.9,0.6,1.8-0.1,2.5-0.7c1.8-1.6,3.6-2.4,5.8-0.7c0.5,0.4,0.9,0.1,1.3-0.2c2.3-1.6,4.5-3.2,6.4-5.2c0.8-0.9,1.1-1.7,0.5-2.7
			c-0.7-1.2-1.4-2.4-2.2-3.6c-0.7-0.9-1.6-1.6-2.8-1.6c-11.9-0.4-23.8-0.8-35.8-1.2c-0.8,0-1.5,0-2.2,0.3c-2.2,0.8-3.2,0.1-3.3-2.2
			c0-0.9,0.3-2-0.9-2.5c-1.2-0.6-2.3-1-3.7,0.1c-2.2,1.7-4.6,0.5-4.8-2.3c-0.1-2-0.6-4-1.7-5.7C69,1.1,66.3,0,63,0
			c-6.2,0-12.4,0.1-18.6,0c-3.8-0.1-6.2,1.8-7.8,5c-0.7,1.5-1.5,2.8-2.5,4.1c-5.5,6.5-6.3,13.9-4.2,21.8c0.8,3.2,2,6.2,4.8,8.2
			c0.4,0.3,0.5,0.8,0.6,1.3c1.2,4.9,4.2,7.3,9.2,7.4C47.7,47.8,50.9,47.8,54.2,47.8z M46.3,23.3c0,2.6,0,5.3,0,7.9
			c0,1.1-0.3,1.7-1.6,1.7c-2.4,0-4.7,0-7.1,0c-1,0-1.7-0.4-2-1.3c-2-5.5-2-10.9,0-16.4c0.4-1,1-1.4,2.1-1.4c2.3,0,4.6,0.1,6.9,0
			c1.3,0,1.7,0.6,1.7,1.8C46.2,18.1,46.3,20.7,46.3,23.3z"/>
		<g class="st2">
			<path class="st3" d="M56.2,23.5c-0.2,0.3-0.5,0.6-0.8,0.8s-0.9,0.3-1.4,0.3h-1V27h-1.7v-6.9h2.7c0.5,0,1,0.1,1.4,0.3
				c0.4,0.2,0.7,0.5,0.9,0.8c0.2,0.3,0.3,0.7,0.3,1.1C56.4,22.8,56.4,23.1,56.2,23.5z M54.5,23c0.2-0.2,0.2-0.4,0.2-0.6
				c0-0.3-0.1-0.5-0.2-0.6c-0.2-0.2-0.4-0.2-0.7-0.2h-0.9v1.7h0.9C54.1,23.2,54.3,23.2,54.5,23z"/>
			<path class="st3" d="M60.8,27l-1.4-2.6H59V27h-1.7v-6.9h2.8c0.5,0,1,0.1,1.4,0.3c0.4,0.2,0.7,0.5,0.9,0.8
				c0.2,0.3,0.3,0.7,0.3,1.1c0,0.5-0.1,0.9-0.4,1.2s-0.6,0.6-1.1,0.8l1.6,2.7H60.8z M59,23.3h1c0.3,0,0.5-0.1,0.7-0.2
				c0.2-0.2,0.2-0.4,0.2-0.6c0-0.3-0.1-0.5-0.2-0.6s-0.4-0.2-0.7-0.2h-1V23.3z"/>
			<path class="st3" d="M65.4,20.1V27h-1.7v-6.9H65.4z"/>
			<path class="st3" d="M73.1,20.1L70.6,27h-2.1l-2.4-6.9h1.8l1.7,5.2l1.7-5.2H73.1z"/>
			<path class="st3" d="M78.1,25.8h-2.6L75.1,27h-1.8l2.5-6.9h1.9l2.5,6.9h-1.8L78.1,25.8z M77.7,24.5L76.8,22L76,24.5H77.7z"/>
			<path class="st3" d="M86,20.1v1.3h-1.8V27h-1.7v-5.6h-1.8v-1.3H86z"/>
			<path class="st3" d="M88.5,21.5v1.4h2.2v1.3h-2.2v1.5h2.5V27h-4.2v-6.9h4.2v1.3H88.5z"/>
		</g>
	</g>
	<g>
		<circle class="st0" cx="25.1" cy="134.5" r="21.5"/>
		<path class="st1" d="M50.3,176.3c2.8,0.9,5.7,1.8,8.5,2.7c4.2,1.3,9.5-1.2,11.3-5.3c0.2-0.5,0.4-1.1,0.7-1.6
			c0.6-1.1,1.6-1.8,2.9-1.7c1.3,0.2,2.4,0.8,2.9,2.1c0.3,0.9,0.8,1.7,1.9,1.7c1.2,0.1,2-0.6,2.6-1.6c0.8-1.6,2-2.2,3.6-1.6
			c1.1,0.4,2.1,0.3,3.1-0.1c1.3-0.5,2.6-1,3.9-1.5c1.6-0.7,3.1,0.1,4,1.6c1.2,2,2.2,4.3,4.7,4.9c0.8,0.2,1.2,0.9,1.6,1.5
			c0.7,0.9,1.4,1.2,2.6,0.7c1.8-0.7,3.7-1.2,5.3,0.8c0.7,0.9,1.7,0.5,2.6,0.1c2.2-1,4.2-1.2,5.7,1.1c0.3,0.5,0.9,0.3,1.3,0.2
			c2.6-0.8,5.2-1.7,7.7-3c1.1-0.6,1.5-1.3,1.3-2.5c-0.3-1.4-0.6-2.7-1-4.1c-0.4-1.1-1-2-2.2-2.4c-11.2-4-22.5-8-33.7-12
			c-0.7-0.3-1.4-0.4-2.2-0.4c-2.4,0.1-3.1-0.9-2.5-3.1c0.3-0.9,0.9-1.8-0.1-2.7s-1.9-1.7-3.6-1.1c-2.6,1-4.5-0.9-3.8-3.7
			c0.5-2,0.6-4,0.1-5.9c-0.9-3.2-3.2-5.2-6.3-6.2c-5.9-1.8-11.9-3.6-17.8-5.6c-3.6-1.2-6.5-0.1-8.9,2.5c-1.1,1.2-2.2,2.2-3.6,3.1
			c-7.1,4.5-10.2,11.3-10.6,19.5c-0.2,3.3,0.1,6.5,2.1,9.3c0.3,0.4,0.2,0.9,0.2,1.4c-0.3,5,1.8,8.3,6.6,9.8
			C44.1,174.3,47.2,175.3,50.3,176.3z M50.2,150.5c-0.8,2.5-1.6,5-2.4,7.6c-0.3,1.1-0.8,1.5-2,1.1c-2.2-0.8-4.5-1.5-6.8-2.1
			c-1-0.3-1.5-0.9-1.5-1.9c-0.3-5.8,1.4-11,4.9-15.7c0.6-0.8,1.4-1,2.4-0.7c2.2,0.7,4.4,1.5,6.6,2.1c1.3,0.4,1.4,1,1,2.2
			C51.7,145.6,51,148,50.2,150.5z"/>
		<g class="st2">
			<path class="st3" d="M59.6,153.6c-0.3,0.3-0.6,0.4-1,0.5s-0.9,0-1.4-0.1l-1-0.3l-0.7,2.4l-1.6-0.5l2.1-6.6l2.6,0.8
				c0.5,0.2,0.9,0.4,1.2,0.7c0.3,0.3,0.5,0.6,0.6,1c0.1,0.4,0.1,0.8-0.1,1.2C60.1,153.1,59.9,153.4,59.6,153.6z M58.1,152.7
				c0.2-0.1,0.3-0.3,0.4-0.5c0.1-0.3,0.1-0.5,0-0.7c-0.1-0.2-0.3-0.3-0.6-0.4l-0.9-0.3l-0.5,1.6l0.9,0.3
				C57.7,152.8,57.9,152.8,58.1,152.7z"/>
			<path class="st3" d="M63.3,151.3l-1.2,3.9c-0.1,0.4-0.1,0.7,0,1c0.1,0.3,0.4,0.5,0.8,0.6c0.4,0.1,0.7,0.1,1,0
				c0.3-0.1,0.5-0.4,0.6-0.8l1.2-3.9l1.6,0.5l-1.2,3.9c-0.2,0.6-0.5,1-0.8,1.4c-0.4,0.3-0.8,0.5-1.3,0.6c-0.5,0.1-1,0-1.5-0.1
				s-1-0.4-1.3-0.7c-0.3-0.3-0.6-0.7-0.7-1.2c-0.1-0.5-0.1-1,0.1-1.6l1.2-3.9L63.3,151.3z"/>
			<path class="st3" d="M72,158.2c0.1,0.4,0.1,0.7,0,1.1c-0.2,0.5-0.5,0.9-1,1.1c-0.5,0.2-1.1,0.2-1.8,0l-3.1-1l2.1-6.6l3,0.9
				c0.7,0.2,1.1,0.5,1.4,1c0.3,0.4,0.3,0.9,0.2,1.4c-0.1,0.4-0.3,0.7-0.6,0.9c-0.3,0.2-0.6,0.3-1,0.3
				C71.6,157.6,71.9,157.9,72,158.2z M70.1,159.1c0.2-0.1,0.3-0.2,0.4-0.5c0.1-0.2,0.1-0.4-0.1-0.6c-0.1-0.2-0.3-0.3-0.6-0.4
				l-1.2-0.4l-0.5,1.5l1.2,0.4C69.7,159.2,69.9,159.2,70.1,159.1z M69,156.1l1,0.3c0.3,0.1,0.5,0.1,0.7,0s0.3-0.2,0.4-0.4
				c0.1-0.2,0.1-0.4,0-0.6c-0.1-0.2-0.3-0.3-0.5-0.4l-1-0.3L69,156.1z"/>
			<path class="st3" d="M74.4,160.7l2.1,0.7l-0.4,1.2l-3.7-1.2l2.1-6.6l1.6,0.5L74.4,160.7z"/>
			<path class="st3" d="M80.5,156.8l-2.1,6.6l-1.6-0.5l2.1-6.6L80.5,156.8z"/>
			<path class="st3" d="M81.4,158.7c0.4-0.4,1-0.7,1.6-0.8c0.6-0.1,1.2-0.1,1.8,0.1c0.8,0.2,1.4,0.7,1.8,1.3c0.4,0.6,0.6,1.3,0.6,2
				l-1.8-0.6c0-0.3-0.2-0.6-0.4-0.8c-0.2-0.2-0.4-0.4-0.8-0.5c-0.5-0.2-0.9-0.1-1.4,0.1c-0.4,0.2-0.7,0.7-0.9,1.2s-0.2,1.1,0,1.5
				c0.2,0.4,0.5,0.7,1,0.9c0.3,0.1,0.6,0.1,0.9,0c0.3-0.1,0.5-0.2,0.8-0.5l1.8,0.6c-0.4,0.7-1,1.1-1.6,1.3c-0.7,0.2-1.4,0.2-2.2,0
				c-0.6-0.2-1.2-0.5-1.6-1s-0.7-1-0.8-1.6c-0.1-0.6-0.1-1.2,0.1-1.9C80.6,159.7,80.9,159.2,81.4,158.7z"/>
		</g>
		<path d="M56.4,142.2c3,0,5.9,0,8.9,0c4.4,0,8.7-4,9.1-8.4c0.1-0.6,0.1-1.2,0.2-1.8c0.3-1.2,1-2.2,2.3-2.5s2.5,0,3.3,1.1
			c0.6,0.8,1.2,1.4,2.3,1.1c1.2-0.3,1.7-1.2,1.9-2.3c0.3-1.7,1.3-2.7,2.9-2.6c1.2,0.1,2.1-0.4,2.9-1.1c1.1-0.9,2.2-1.7,3.3-2.6
			c1.3-1.1,3-0.8,4.3,0.3c1.7,1.5,3.3,3.4,6,3.3c0.8,0,1.4,0.5,2,0.9c0.9,0.6,1.7,0.8,2.7-0.1c1.5-1.2,3.2-2.3,5.3-0.8
			c0.9,0.6,1.8-0.1,2.5-0.7c1.8-1.6,3.6-2.4,5.8-0.7c0.5,0.4,0.9,0.1,1.3-0.2c2.3-1.6,4.5-3.2,6.4-5.2c0.8-0.9,1.1-1.7,0.5-2.7
			c-0.7-1.2-1.4-2.4-2.2-3.6c-0.7-0.9-1.6-1.6-2.8-1.6c-11.9-0.4-23.8-0.8-35.8-1.2c-0.8,0-1.5,0-2.2,0.3c-2.2,0.8-3.2,0.1-3.3-2.2
			c0-0.9,0.3-2-0.9-2.5c-1.2-0.6-2.3-1-3.7,0.1c-2.2,1.7-4.6,0.5-4.8-2.3c-0.1-2-0.6-4-1.7-5.7c-1.8-2.8-4.6-4-7.9-4
			c-6.2,0-12.4,0.1-18.6,0c-3.8-0.1-6.2,1.8-7.8,5c-0.7,1.5-1.5,2.8-2.5,4.1c-5.5,6.5-6.3,13.9-4.2,21.8c0.8,3.2,2,6.2,4.8,8.2
			c0.4,0.3,0.5,0.8,0.6,1.3c1.2,4.9,4.2,7.3,9.2,7.4C49.9,142.2,53.2,142.2,56.4,142.2z M48.5,117.7c0,2.6,0,5.3,0,7.9
			c0,1.1-0.3,1.7-1.6,1.7c-2.4,0-4.7,0-7.1,0c-1,0-1.7-0.4-2-1.3c-2-5.5-2-10.9,0-16.4c0.4-1,1-1.4,2.1-1.4c2.3,0,4.6,0.1,6.9,0
			c1.3,0,1.7,0.6,1.7,1.8C48.5,112.5,48.5,115.1,48.5,117.7z"/>
		<g class="st2">
			<path class="st3" d="M58.4,117.8c-0.2,0.3-0.5,0.6-0.8,0.8s-0.9,0.3-1.4,0.3h-1v2.5h-1.7v-6.9h2.7c0.5,0,1,0.1,1.4,0.3
				c0.4,0.2,0.7,0.5,0.9,0.8c0.2,0.3,0.3,0.7,0.3,1.1C58.7,117.1,58.6,117.5,58.4,117.8z M56.7,117.4c0.2-0.2,0.2-0.4,0.2-0.6
				c0-0.3-0.1-0.5-0.2-0.6c-0.2-0.2-0.4-0.2-0.7-0.2h-0.9v1.7H56C56.3,117.6,56.6,117.5,56.7,117.4z"/>
			<path class="st3" d="M63.1,121.4l-1.4-2.6h-0.4v2.6h-1.7v-6.9h2.8c0.5,0,1,0.1,1.4,0.3c0.4,0.2,0.7,0.5,0.9,0.8
				c0.2,0.3,0.3,0.7,0.3,1.1c0,0.5-0.1,0.9-0.4,1.2s-0.6,0.6-1.1,0.8l1.6,2.7H63.1z M61.2,117.6h1c0.3,0,0.5-0.1,0.7-0.2
				c0.2-0.2,0.2-0.4,0.2-0.6c0-0.3-0.1-0.5-0.2-0.6c-0.2-0.2-0.4-0.2-0.7-0.2h-1V117.6z"/>
			<path class="st3" d="M67.6,114.5v6.9H66v-6.9H67.6z"/>
			<path class="st3" d="M75.3,114.5l-2.4,6.9h-2.1l-2.4-6.9h1.8l1.7,5.2l1.7-5.2H75.3z"/>
			<path class="st3" d="M80.3,120.2h-2.6l-0.4,1.2h-1.8l2.5-6.9H80l2.5,6.9h-1.8L80.3,120.2z M79.9,118.9l-0.9-2.5l-0.8,2.5H79.9z"
				/>
			<path class="st3" d="M88.2,114.5v1.3h-1.8v5.6h-1.7v-5.6h-1.8v-1.3H88.2z"/>
			<path class="st3" d="M90.8,115.9v1.4H93v1.3h-2.2v1.5h2.5v1.3h-4.2v-6.9h4.2v1.3H90.8z"/>
		</g>
	</g>
	<g>
		<circle class="st0" cx="25.1" cy="219.6" r="21.5"/>
		<path class="st1" d="M50.3,261.3c2.8,0.9,5.7,1.8,8.5,2.7c4.2,1.3,9.5-1.2,11.3-5.3c0.2-0.5,0.4-1.1,0.7-1.6
			c0.6-1.1,1.6-1.8,2.9-1.7c1.3,0.2,2.4,0.8,2.9,2.1c0.3,0.9,0.8,1.7,1.9,1.7c1.2,0.1,2-0.6,2.6-1.6c0.8-1.6,2-2.2,3.6-1.6
			c1.1,0.4,2.1,0.3,3.1-0.1c1.3-0.5,2.6-1,3.9-1.5c1.6-0.7,3.1,0.1,4,1.6c1.2,2,2.2,4.3,4.7,4.9c0.8,0.2,1.2,0.9,1.6,1.5
			c0.7,0.9,1.4,1.2,2.6,0.7c1.8-0.7,3.7-1.2,5.3,0.8c0.7,0.9,1.7,0.5,2.6,0.1c2.2-1,4.2-1.2,5.7,1.1c0.3,0.5,0.9,0.3,1.3,0.2
			c2.6-0.8,5.2-1.7,7.7-3c1.1-0.6,1.5-1.3,1.3-2.5c-0.3-1.4-0.6-2.7-1-4.1c-0.4-1.1-1-2-2.2-2.4c-11.2-4-22.5-8-33.7-12
			c-0.7-0.3-1.4-0.4-2.2-0.4c-2.4,0.1-3.1-0.9-2.5-3.1c0.3-0.9,0.9-1.8-0.1-2.7s-1.9-1.7-3.6-1.1c-2.6,1-4.5-0.9-3.8-3.7
			c0.5-2,0.6-4,0.1-5.9c-0.9-3.2-3.2-5.2-6.3-6.2c-5.9-1.8-11.9-3.6-17.8-5.6c-3.6-1.2-6.5-0.1-8.9,2.5c-1.1,1.2-2.2,2.2-3.6,3.1
			c-7.1,4.5-10.2,11.3-10.6,19.5c-0.2,3.3,0.1,6.5,2.1,9.3c0.3,0.4,0.2,0.9,0.2,1.4c-0.3,5,1.8,8.3,6.6,9.8
			C44.1,259.4,47.2,260.3,50.3,261.3z M50.2,235.6c-0.8,2.5-1.6,5-2.4,7.6c-0.3,1.1-0.8,1.5-2,1.1c-2.2-0.8-4.5-1.5-6.8-2.1
			c-1-0.3-1.5-0.9-1.5-1.9c-0.3-5.8,1.4-11,4.9-15.7c0.6-0.8,1.4-1,2.4-0.7c2.2,0.7,4.4,1.5,6.6,2.1c1.3,0.4,1.4,1,1,2.2
			C51.7,230.6,51,233.1,50.2,235.6z"/>
		<g class="st2">
			<path class="st3" d="M59.6,238.7c-0.3,0.3-0.6,0.4-1,0.5c-0.4,0.1-0.9,0-1.4-0.1l-1-0.3l-0.7,2.4l-1.6-0.5l2.1-6.6l2.6,0.8
				c0.5,0.2,0.9,0.4,1.2,0.7c0.3,0.3,0.5,0.6,0.6,1c0.1,0.4,0.1,0.8-0.1,1.2C60.1,238.1,59.9,238.4,59.6,238.7z M58.1,237.8
				c0.2-0.1,0.3-0.3,0.4-0.5c0.1-0.3,0.1-0.5,0-0.7c-0.1-0.2-0.3-0.3-0.6-0.4l-0.9-0.3l-0.5,1.6l0.9,0.3
				C57.7,237.9,57.9,237.9,58.1,237.8z"/>
			<path class="st3" d="M63.3,236.4l-1.2,3.9c-0.1,0.4-0.1,0.7,0,1c0.1,0.3,0.4,0.5,0.8,0.6c0.4,0.1,0.7,0.1,1,0
				c0.3-0.1,0.5-0.4,0.6-0.8l1.2-3.9l1.6,0.5l-1.2,3.9c-0.2,0.6-0.5,1-0.8,1.4s-0.8,0.5-1.3,0.6c-0.5,0.1-1,0-1.5-0.1
				s-1-0.4-1.3-0.7c-0.3-0.3-0.6-0.7-0.7-1.2c-0.1-0.5-0.1-1,0.1-1.6l1.2-3.9L63.3,236.4z"/>
			<path class="st3" d="M72,243.3c0.1,0.4,0.1,0.7,0,1.1c-0.2,0.5-0.5,0.9-1,1.1c-0.5,0.2-1.1,0.2-1.8,0l-3.1-1l2.1-6.6l3,0.9
				c0.7,0.2,1.1,0.5,1.4,1s0.3,0.9,0.2,1.4c-0.1,0.4-0.3,0.7-0.6,0.9c-0.3,0.2-0.6,0.3-1,0.3C71.6,242.6,71.9,242.9,72,243.3z
				 M70.1,244.1c0.2-0.1,0.3-0.2,0.4-0.5c0.1-0.2,0.1-0.4-0.1-0.6c-0.1-0.2-0.3-0.3-0.6-0.4l-1.2-0.4l-0.5,1.5l1.2,0.4
				C69.7,244.2,69.9,244.2,70.1,244.1z M69,241.1l1,0.3c0.3,0.1,0.5,0.1,0.7,0c0.2-0.1,0.3-0.2,0.4-0.4c0.1-0.2,0.1-0.4,0-0.6
				c-0.1-0.2-0.3-0.3-0.5-0.4l-1-0.3L69,241.1z"/>
			<path class="st3" d="M74.4,245.8l2.1,0.7l-0.4,1.2l-3.7-1.2l2.1-6.6l1.6,0.5L74.4,245.8z"/>
			<path class="st3" d="M80.5,241.8l-2.1,6.6l-1.6-0.5l2.1-6.6L80.5,241.8z"/>
			<path class="st3" d="M81.4,243.8c0.4-0.4,1-0.7,1.6-0.8c0.6-0.1,1.2-0.1,1.8,0.1c0.8,0.2,1.4,0.7,1.8,1.3s0.6,1.3,0.6,2l-1.8-0.6
				c0-0.3-0.2-0.6-0.4-0.8c-0.2-0.2-0.4-0.4-0.8-0.5c-0.5-0.2-0.9-0.1-1.4,0.1c-0.4,0.2-0.7,0.7-0.9,1.2s-0.2,1.1,0,1.5
				c0.2,0.4,0.5,0.7,1,0.9c0.3,0.1,0.6,0.1,0.9,0c0.3-0.1,0.5-0.2,0.8-0.5l1.8,0.6c-0.4,0.7-1,1.1-1.6,1.3c-0.7,0.2-1.4,0.2-2.2,0
				c-0.6-0.2-1.2-0.5-1.6-1c-0.4-0.4-0.7-1-0.8-1.6c-0.1-0.6-0.1-1.2,0.1-1.9C80.6,244.8,80.9,244.2,81.4,243.8z"/>
		</g>
	</g>
</g>
<g>
	<g>
		<path class="st4" d="M445.5,158.1h-70c-2.8,0-5.1-2.3-5.1-5.1v-41.8c0-2.8,2.3-5.1,5.1-5.1h70c2.8,0,5.1,2.3,5.1,5.1V153
			C450.6,155.8,448.4,158.1,445.5,158.1z"/>
		<path class="st4" d="M365.8,206.3H177c-7.8,0-14.2-6.3-14.2-14.2v-120c0-7.8,6.3-14.2,14.2-14.2h188.8c7.8,0,14.2,6.3,14.2,14.2
			v120C380,199.9,373.6,206.3,365.8,206.3z"/>
	</g>
	<path d="M270.3,158.9c-4.5,0-9.1,0-13.6,0c-2.8,0-2.8,0-2.8-2.8c0-7.4,0-14.8,0-22.2c0-1.8,0-1.8,1.8-1.8c7.2,0,14.5,0,21.7,0
		c1.3,0,1.7-0.4,1.7-1.7c-0.1-5.4-0.1-10.7,0-16.1c0-5.9,4.1-11.6,9.5-13.6c6.8-2.5,14.5,0.8,17.5,7.6c1,2.2,1.5,4.5,1.5,6.9
		c0,4.5,0,8.9,0,13.4c0,1-0.1,2.1-1.1,2.3c-1.2,0.3-2.6,0.5-3.7-0.4c-0.5-0.4-0.6-1-0.5-1.6c0.1-0.7,0.7-0.6,1.2-0.7
		c1-0.2,1.4-0.9,0.6-1.4c-2.2-1.4-1.8-3.5-1.8-5.6c0-2.4,0.1-4.7-0.1-7.1c-0.3-3.7-2.2-6.5-5.7-7.9c-3.2-1.3-6.3-0.8-8.9,1.5
		c-1.9,1.6-2.9,3.7-3.2,6.2c-0.3,3.2-0.2,6.4-0.1,9.6c0,1.3-0.3,2.3-1.2,3.2c-0.9,0.8-0.8,1.2,0.4,1.5c0.6,0.2,0.8,0.5,0.8,1.1
		c0,0.5,0,1,0,1.5c0,0.8,0.3,1.2,1.1,1.2c1.1-0.1,1.4,0.5,1.4,1.5c0,7.8,0,15.7,0,23.5c0,1.5-0.2,1.7-2.1,1.8
		c-3.4,0.1-6.8,0.1-10.1,0.1C273.1,159,271.7,159,270.3,158.9L270.3,158.9z"/>
	<g class="st2">
		<path d="M231.2,85.2c1.8-1.5,3.2-2.7,4.3-3.7c1-1,1.9-2,2.6-3c0.7-1,1.1-2.1,1.1-3.1c0-0.8-0.2-1.3-0.5-1.8
			c-0.3-0.4-0.9-0.6-1.6-0.6c-0.7,0-1.2,0.3-1.6,0.8c-0.4,0.5-0.6,1.3-0.6,2.2h-4.5c0-1.6,0.4-2.9,1-3.9c0.6-1,1.5-1.8,2.5-2.3
			c1-0.5,2.2-0.7,3.5-0.7c2.2,0,3.8,0.6,4.9,1.7c1.1,1.1,1.7,2.6,1.7,4.4c0,2-0.7,3.8-2,5.5s-3,3.3-5.1,4.9h7.4v3.8h-13.8v-3.5
			C230.9,85.4,231.2,85.2,231.2,85.2z"/>
		<path d="M258.5,78.1V82h-12.1v-3.9H258.5z"/>
		<path d="M265.6,88.9c-1.2-0.6-2.1-1.6-2.8-2.8s-1-2.6-1-4.2c0-1.6,0.3-3,1-4.2c0.7-1.2,1.7-2.1,2.9-2.8c1.2-0.6,2.6-1,4.1-1
			s2.9,0.3,4.1,1c1.2,0.6,2.2,1.6,2.9,2.8c0.7,1.2,1,2.6,1,4.2c0,1.6-0.4,3-1.1,4.2c-0.7,1.2-1.7,2.1-2.9,2.8c-1.2,0.6-2.6,1-4.1,1
			S266.8,89.6,265.6,88.9z M271.9,84.8c0.6-0.7,1-1.6,1-2.8c0-1.2-0.3-2.2-0.9-2.8c-0.6-0.7-1.4-1-2.3-1c-0.9,0-1.7,0.3-2.3,1
			c-0.6,0.7-0.9,1.6-0.9,2.8c0,1.2,0.3,2.2,0.9,2.8c0.6,0.7,1.3,1,2.2,1S271.3,85.5,271.9,84.8z"/>
		<path d="M287.9,78.2h-2.5v11.5h-4.7V78.2h-1.7v-3.9h1.7v-0.4c0-1.9,0.5-3.3,1.6-4.3c1.1-1,2.7-1.5,4.8-1.5c0.3,0,0.6,0,0.8,0v4
			c-0.9-0.1-1.5,0.1-1.9,0.4c-0.4,0.3-0.6,0.9-0.6,1.7v0.1h2.5V78.2z"/>
		<path d="M301.9,78.1V82h-12.1v-3.9H301.9z"/>
		<path d="M307.7,70.7c1.2-1.1,2.9-1.6,4.9-1.6c1.4,0,2.6,0.2,3.5,0.7c1,0.5,1.7,1.1,2.2,2s0.8,1.8,0.8,2.8c0,1.2-0.3,2.2-0.9,3
			s-1.3,1.3-2.1,1.6v0.1c1,0.3,1.9,0.9,2.5,1.7s0.9,1.8,0.9,3.1c0,1.1-0.3,2.1-0.8,3s-1.3,1.6-2.3,2.1c-1,0.5-2.2,0.7-3.6,0.7
			c-2.2,0-4-0.5-5.3-1.6s-2-2.7-2.1-4.9h4.6c0,0.8,0.2,1.4,0.7,1.9s1.1,0.7,1.9,0.7c0.7,0,1.3-0.2,1.7-0.6c0.4-0.4,0.6-1,0.6-1.6
			c0-0.9-0.3-1.5-0.8-1.9c-0.6-0.4-1.5-0.6-2.7-0.6h-0.9v-3.8h0.9c0.9,0,1.7-0.2,2.3-0.5c0.6-0.3,0.9-0.9,0.9-1.7
			c0-0.7-0.2-1.2-0.6-1.5s-0.9-0.6-1.5-0.6c-0.7,0-1.2,0.2-1.6,0.6c-0.3,0.4-0.5,0.9-0.6,1.6h-4.6C305.8,73.3,306.5,71.8,307.7,70.7
			z"/>
	</g>
	<g class="st2">
		<path d="M242.3,177c1.1,1.2,1.7,2.8,1.7,4.8v9h-4.7v-8.3c0-1-0.3-1.8-0.8-2.3c-0.5-0.5-1.2-0.8-2.2-0.8s-1.6,0.3-2.2,0.8
			c-0.5,0.5-0.8,1.3-0.8,2.3v8.3h-4.7v-8.3c0-1-0.3-1.8-0.8-2.3c-0.5-0.5-1.2-0.8-2.2-0.8c-0.9,0-1.6,0.3-2.2,0.8
			c-0.5,0.5-0.8,1.3-0.8,2.3v8.3h-4.7v-15.4h4.7v1.9c0.5-0.6,1.1-1.2,1.9-1.5c0.8-0.4,1.6-0.6,2.6-0.6c1.2,0,2.2,0.2,3.1,0.7
			c0.9,0.5,1.6,1.2,2.1,2.1c0.5-0.8,1.3-1.5,2.2-2.1c0.9-0.5,1.9-0.8,3-0.8C239.7,175.3,241.2,175.9,242.3,177z"/>
		<path d="M262.5,175.4v15.4h-4.7v-2.1c-0.5,0.7-1.1,1.2-1.9,1.6c-0.8,0.4-1.7,0.6-2.7,0.6c-1.2,0-2.2-0.3-3.1-0.8
			c-0.9-0.5-1.6-1.3-2.1-2.3c-0.5-1-0.7-2.2-0.7-3.5v-9h4.7v8.3c0,1,0.3,1.8,0.8,2.4c0.5,0.6,1.2,0.9,2.1,0.9c0.9,0,1.6-0.3,2.2-0.9
			c0.5-0.6,0.8-1.4,0.8-2.4v-8.3H262.5z"/>
		<path d="M270.6,170.4v20.4h-4.7v-20.4H270.6z"/>
		<path d="M282.6,186.8v4h-2.4c-1.7,0-3-0.4-4-1.3c-1-0.8-1.4-2.2-1.4-4.1v-6.1h-1.9v-3.9h1.9v-3.7h4.7v3.7h3.1v3.9h-3.1v6.2
			c0,0.5,0.1,0.8,0.3,1c0.2,0.2,0.6,0.3,1.1,0.3H282.6z"/>
		<path d="M285.5,173.1c-0.5-0.5-0.8-1.1-0.8-1.8c0-0.7,0.3-1.3,0.8-1.8s1.2-0.7,2-0.7c0.8,0,1.5,0.2,2,0.7c0.5,0.5,0.8,1.1,0.8,1.8
			c0,0.7-0.3,1.3-0.8,1.8c-0.5,0.5-1.2,0.7-2,0.7C286.7,173.9,286.1,173.6,285.5,173.1z M289.9,175.4v15.4h-4.7v-15.4H289.9z"/>
		<path d="M296,190.3c-1-0.5-1.9-1.1-2.5-1.9c-0.6-0.8-0.9-1.7-1-2.7h4.7c0.1,0.5,0.3,1,0.7,1.3s1,0.5,1.6,0.5c0.6,0,1-0.1,1.4-0.3
			s0.5-0.5,0.5-0.9c0-0.4-0.2-0.8-0.7-1c-0.5-0.2-1.2-0.4-2.2-0.7c-1.1-0.3-2-0.5-2.8-0.8c-0.7-0.3-1.4-0.7-1.9-1.3S293,181,293,180
			c0-0.9,0.2-1.7,0.7-2.4c0.5-0.7,1.2-1.3,2.1-1.7c0.9-0.4,2.1-0.6,3.4-0.6c1.9,0,3.4,0.5,4.6,1.4c1.1,1,1.7,2.2,1.9,3.8h-4.4
			c-0.1-0.5-0.3-1-0.7-1.3s-0.9-0.5-1.6-0.5c-0.6,0-1,0.1-1.3,0.3c-0.3,0.2-0.4,0.5-0.4,0.9c0,0.4,0.2,0.8,0.7,1
			c0.5,0.2,1.2,0.4,2.2,0.7c1.1,0.3,2.1,0.6,2.8,0.9c0.7,0.3,1.3,0.7,1.9,1.4c0.5,0.6,0.8,1.5,0.8,2.5c0,0.9-0.3,1.7-0.8,2.4
			c-0.5,0.7-1.2,1.3-2.2,1.7c-0.9,0.4-2,0.6-3.3,0.6C298.2,191,297,190.8,296,190.3z"/>
		<path d="M309,173.1c-0.5-0.5-0.8-1.1-0.8-1.8c0-0.7,0.3-1.3,0.8-1.8s1.2-0.7,2-0.7c0.8,0,1.5,0.2,2,0.7c0.5,0.5,0.8,1.1,0.8,1.8
			c0,0.7-0.3,1.3-0.8,1.8c-0.5,0.5-1.2,0.7-2,0.7C310.2,173.9,309.5,173.6,309,173.1z M313.4,175.4v15.4h-4.7v-15.4H313.4z"/>
		<path d="M325.5,175.9c0.8,0.4,1.4,1,1.9,1.7v-2.2h4.7v15.3c0,1.4-0.3,2.7-0.8,3.8c-0.6,1.1-1.4,2.1-2.6,2.7c-1.1,0.7-2.6,1-4.3,1
			c-2.3,0-4.1-0.5-5.5-1.6c-1.4-1.1-2.2-2.5-2.4-4.4h4.7c0.1,0.6,0.5,1.1,1,1.4c0.5,0.3,1.2,0.5,2,0.5c1,0,1.7-0.3,2.3-0.8
			c0.6-0.6,0.9-1.5,0.9-2.7v-2.2c-0.5,0.7-1.1,1.3-1.9,1.7s-1.8,0.7-2.8,0.7c-1.3,0-2.4-0.3-3.4-1c-1-0.7-1.8-1.6-2.4-2.8
			c-0.6-1.2-0.9-2.6-0.9-4.2c0-1.6,0.3-3,0.9-4.2c0.6-1.2,1.4-2.1,2.4-2.8c1-0.6,2.2-1,3.4-1C323.7,175.2,324.7,175.4,325.5,175.9z
			 M326.4,180.3c-0.7-0.7-1.4-1-2.4-1c-0.9,0-1.7,0.3-2.4,1s-1,1.6-1,2.8c0,1.2,0.3,2.1,1,2.8c0.7,0.7,1.4,1,2.4,1
			c0.9,0,1.7-0.3,2.4-1s1-1.6,1-2.8C327.4,182,327,181,326.4,180.3z"/>
	</g>
	<g>
		<circle class="st0" cx="427.6" cy="132.1" r="11.9"/>
		<circle cx="427.6" cy="132.1" r="4.3"/>
	</g>
	<g>
		<circle cx="337.1" cy="132.1" r="11.9"/>
		<circle class="st3" cx="337.1" cy="132.1" r="4.3"/>
	</g>
</g>
</svg>
