<?xml version="1.0" encoding="utf-8"?>
<!-- Generator: Adobe Illustrator 23.0.6, SVG Export Plug-In . SVG Version: 6.00 Build 0)  -->
<svg version="1.1" id="Lag_1" xmlns="http://www.w3.org/2000/svg" xmlns:xlink="http://www.w3.org/1999/xlink" x="0px" y="0px"
	 viewBox="0 0 447.8 303.3" style="enable-background:new 0 0 447.8 303.3;" xml:space="preserve">
<style type="text/css">
	.st0{fill:none;stroke:#000000;stroke-width:2.8346;stroke-miterlimit:10;}
	.st1{enable-background:new    ;}
	.st2{fill:#FFFFFF;}
	.st3{fill:#FFFFFF;stroke:#1D1E1C;stroke-width:2.8346;stroke-miterlimit:10;}
	.st4{fill:none;stroke:#000000;stroke-width:2.8346;stroke-linecap:round;stroke-miterlimit:10;}
</style>
<g>
	<g>
		<circle class="st0" cx="22.9" cy="78.5" r="21.5"/>
		<path d="M54.2,86.2c3,0,5.9,0,8.9,0c4.4,0,8.7-4,9.1-8.4c0.1-0.6,0.1-1.2,0.2-1.8c0.3-1.2,1-2.2,2.3-2.5s2.5,0,3.3,1.1
			c0.6,0.8,1.2,1.4,2.3,1.1c1.2-0.3,1.7-1.2,1.9-2.3c0.3-1.7,1.3-2.7,2.9-2.6c1.2,0.1,2.1-0.4,2.9-1.1c1.1-0.9,2.2-1.7,3.3-2.6
			c1.3-1.1,3-0.8,4.3,0.3c1.7,1.5,3.3,3.4,6,3.3c0.8,0,1.4,0.5,2,0.9c0.9,0.6,1.7,0.8,2.7-0.1c1.5-1.2,3.2-2.3,5.3-0.8
			c0.9,0.6,1.8-0.1,2.5-0.7c1.8-1.6,3.6-2.4,5.8-0.7c0.5,0.4,0.9,0.1,1.3-0.2c2.3-1.6,4.5-3.2,6.4-5.2c0.8-0.9,1.1-1.7,0.5-2.7
			c-0.7-1.2-1.4-2.4-2.2-3.6c-0.7-0.9-1.6-1.6-2.8-1.6c-11.9-0.4-23.8-0.8-35.8-1.2c-0.8,0-1.5,0-2.2,0.3c-2.2,0.8-3.2,0.1-3.3-2.2
			c0-0.9,0.3-2-0.9-2.5c-1.2-0.6-2.3-1-3.7,0.1c-2.2,1.7-4.6,0.5-4.8-2.3c-0.1-2-0.6-4-1.7-5.7c-1.8-2.8-4.6-4-7.9-4
			c-6.2,0-12.4,0.1-18.6,0c-3.8-0.1-6.2,1.8-7.8,5c-0.7,1.5-1.5,2.8-2.5,4.1c-5.5,6.5-6.3,13.9-4.2,21.8c0.8,3.2,2,6.2,4.8,8.2
			c0.4,0.3,0.5,0.8,0.6,1.3c1.2,4.9,4.2,7.3,9.2,7.4C47.7,86.2,50.9,86.2,54.2,86.2z M46.3,61.6c0,2.6,0,5.3,0,7.9
			c0,1.1-0.3,1.7-1.6,1.7c-2.4,0-4.7,0-7.1,0c-1,0-1.7-0.4-2-1.3c-2-5.5-2-10.9,0-16.4c0.4-1,1-1.4,2.1-1.4c2.3,0,4.6,0.1,6.9,0
			c1.3,0,1.7,0.6,1.7,1.8C46.2,56.5,46.3,59,46.3,61.6z"/>
		<g class="st1">
			<path class="st2" d="M56.2,61.8c-0.2,0.3-0.5,0.6-0.8,0.8s-0.9,0.3-1.4,0.3h-1v2.5h-1.7v-6.9h2.7c0.5,0,1,0.1,1.4,0.3
				c0.4,0.2,0.7,0.5,0.9,0.8c0.2,0.3,0.3,0.7,0.3,1.1C56.4,61.1,56.4,61.5,56.2,61.8z M54.5,61.3c0.2-0.2,0.2-0.4,0.2-0.6
				c0-0.3-0.1-0.5-0.2-0.6c-0.2-0.2-0.4-0.2-0.7-0.2h-0.9v1.7h0.9C54.1,61.6,54.3,61.5,54.5,61.3z"/>
			<path class="st2" d="M60.8,65.4l-1.4-2.6H59v2.6h-1.7v-6.9h2.8c0.5,0,1,0.1,1.4,0.3c0.4,0.2,0.7,0.5,0.9,0.8
				c0.2,0.3,0.3,0.7,0.3,1.1c0,0.5-0.1,0.9-0.4,1.2s-0.6,0.6-1.1,0.8l1.6,2.7H60.8z M59,61.6h1c0.3,0,0.5-0.1,0.7-0.2
				c0.2-0.2,0.2-0.4,0.2-0.6c0-0.3-0.1-0.5-0.2-0.6s-0.4-0.2-0.7-0.2h-1V61.6z"/>
			<path class="st2" d="M65.4,58.5v6.9h-1.7v-6.9H65.4z"/>
			<path class="st2" d="M73.1,58.5l-2.4,6.9h-2.1l-2.4-6.9h1.8l1.7,5.2l1.7-5.2H73.1z"/>
			<path class="st2" d="M78.1,64.2h-2.6l-0.4,1.2h-1.8l2.5-6.9h1.9l2.5,6.9h-1.8L78.1,64.2z M77.7,62.9l-0.9-2.5L76,62.9H77.7z"/>
			<path class="st2" d="M86,58.5v1.3h-1.8v5.6h-1.7v-5.6h-1.8v-1.3H86z"/>
			<path class="st2" d="M88.5,59.8v1.4h2.2v1.3h-2.2V64h2.5v1.3h-4.2v-6.9h4.2v1.3H88.5z"/>
		</g>
	</g>
	<g>
		<circle class="st0" cx="25.1" cy="161" r="21.5"/>
		<path d="M56.4,168.7c3,0,5.9,0,8.9,0c4.4,0,8.7-4,9.1-8.4c0.1-0.6,0.1-1.2,0.2-1.8c0.3-1.2,1-2.2,2.3-2.5s2.5,0,3.3,1.1
			c0.6,0.8,1.2,1.4,2.3,1.1c1.2-0.3,1.7-1.2,1.9-2.3c0.3-1.7,1.3-2.7,2.9-2.6c1.2,0.1,2.1-0.4,2.9-1.1c1.1-0.9,2.2-1.7,3.3-2.6
			c1.3-1.1,3-0.8,4.3,0.3c1.7,1.5,3.3,3.4,6,3.3c0.8,0,1.4,0.5,2,0.9c0.9,0.6,1.7,0.8,2.7-0.1c1.5-1.2,3.2-2.3,5.3-0.8
			c0.9,0.6,1.8-0.1,2.5-0.7c1.8-1.6,3.6-2.4,5.8-0.7c0.5,0.4,0.9,0.1,1.3-0.2c2.3-1.6,4.5-3.2,6.4-5.2c0.8-0.9,1.1-1.7,0.5-2.7
			c-0.7-1.2-1.4-2.4-2.2-3.6c-0.7-0.9-1.6-1.6-2.8-1.6c-11.9-0.4-23.8-0.8-35.8-1.2c-0.8,0-1.5,0-2.2,0.3c-2.2,0.8-3.2,0.1-3.3-2.2
			c0-0.9,0.3-2-0.9-2.5c-1.2-0.6-2.3-1-3.7,0.1c-2.2,1.7-4.6,0.5-4.8-2.3c-0.1-2-0.6-4-1.7-5.7c-1.8-2.8-4.6-4-7.9-4
			c-6.2,0-12.4,0.1-18.6,0c-3.8-0.1-6.2,1.8-7.8,5c-0.7,1.5-1.5,2.8-2.5,4.1c-5.5,6.5-6.3,13.9-4.2,21.8c0.8,3.2,2,6.2,4.8,8.2
			c0.4,0.3,0.5,0.8,0.6,1.3c1.2,4.9,4.2,7.3,9.2,7.4C49.9,168.7,53.2,168.7,56.4,168.7z M48.5,144.1c0,2.6,0,5.3,0,7.9
			c0,1.1-0.3,1.7-1.6,1.7c-2.4,0-4.7,0-7.1,0c-1,0-1.7-0.4-2-1.3c-2-5.5-2-10.9,0-16.4c0.4-1,1-1.4,2.1-1.4c2.3,0,4.6,0.1,6.9,0
			c1.3,0,1.7,0.6,1.7,1.8C48.5,139,48.5,141.6,48.5,144.1z"/>
		<g class="st1">
			<path class="st2" d="M58.4,144.3c-0.2,0.3-0.5,0.6-0.8,0.8s-0.9,0.3-1.4,0.3h-1v2.5h-1.7V141h2.7c0.5,0,1,0.1,1.4,0.3
				c0.4,0.2,0.7,0.5,0.9,0.8c0.2,0.3,0.3,0.7,0.3,1.1C58.7,143.6,58.6,144,58.4,144.3z M56.7,143.8c0.2-0.2,0.2-0.4,0.2-0.6
				c0-0.3-0.1-0.5-0.2-0.6c-0.2-0.2-0.4-0.2-0.7-0.2h-0.9v1.7H56C56.3,144.1,56.6,144,56.7,143.8z"/>
			<path class="st2" d="M63.1,147.9l-1.4-2.6h-0.4v2.6h-1.7V141h2.8c0.5,0,1,0.1,1.4,0.3c0.4,0.2,0.7,0.5,0.9,0.8
				c0.2,0.3,0.3,0.7,0.3,1.1c0,0.5-0.1,0.9-0.4,1.2s-0.6,0.6-1.1,0.8l1.6,2.7H63.1z M61.2,144.1h1c0.3,0,0.5-0.1,0.7-0.2
				c0.2-0.2,0.2-0.4,0.2-0.6c0-0.3-0.1-0.5-0.2-0.6c-0.2-0.2-0.4-0.2-0.7-0.2h-1V144.1z"/>
			<path class="st2" d="M67.6,141v6.9H66V141H67.6z"/>
			<path class="st2" d="M75.3,141l-2.4,6.9h-2.1l-2.4-6.9h1.8l1.7,5.2l1.7-5.2H75.3z"/>
			<path class="st2" d="M80.3,146.7h-2.6l-0.4,1.2h-1.8l2.5-6.9H80l2.5,6.9h-1.8L80.3,146.7z M79.9,145.4l-0.9-2.5l-0.8,2.5H79.9z"
				/>
			<path class="st2" d="M88.2,141v1.3h-1.8v5.6h-1.7v-5.6h-1.8V141H88.2z"/>
			<path class="st2" d="M90.8,142.3v1.4H93v1.3h-2.2v1.5h2.5v1.3h-4.2V141h4.2v1.3H90.8z"/>
		</g>
	</g>
	<g>
		<circle class="st0" cx="26.6" cy="243.5" r="21.5"/>
		<path d="M57.9,251.2c3,0,5.9,0,8.9,0c4.4,0,8.7-4,9.1-8.4c0.1-0.6,0.1-1.2,0.2-1.8c0.3-1.2,1-2.2,2.3-2.5s2.5,0,3.3,1.1
			c0.6,0.8,1.2,1.4,2.3,1.1c1.2-0.3,1.7-1.2,1.9-2.3c0.3-1.7,1.3-2.7,2.9-2.6c1.2,0.1,2.1-0.4,2.9-1.1c1.1-0.9,2.2-1.7,3.3-2.6
			c1.3-1.1,3-0.8,4.3,0.3c1.7,1.5,3.3,3.4,6,3.3c0.8,0,1.4,0.5,2,0.9c0.9,0.6,1.7,0.8,2.7-0.1c1.5-1.2,3.2-2.3,5.3-0.8
			c0.9,0.6,1.8-0.1,2.5-0.7c1.8-1.6,3.6-2.4,5.8-0.7c0.5,0.4,0.9,0.1,1.3-0.2c2.3-1.6,4.5-3.2,6.4-5.2c0.8-0.9,1.1-1.7,0.5-2.7
			c-0.7-1.2-1.4-2.4-2.2-3.6c-0.7-0.9-1.6-1.6-2.8-1.6c-11.9-0.4-23.8-0.8-35.8-1.2c-0.8,0-1.5,0-2.2,0.3c-2.2,0.8-3.2,0.1-3.3-2.2
			c0-0.9,0.3-2-0.9-2.5c-1.2-0.6-2.3-1-3.7,0.1c-2.2,1.7-4.6,0.5-4.8-2.3c-0.1-2-0.6-4-1.7-5.7c-1.8-2.8-4.6-4-7.9-4
			c-6.2,0-12.4,0.1-18.6,0c-3.8-0.1-6.2,1.8-7.8,5c-0.7,1.5-1.5,2.8-2.5,4.1c-5.5,6.5-6.3,13.9-4.2,21.8c0.8,3.2,2,6.2,4.8,8.2
			c0.4,0.3,0.5,0.8,0.6,1.3c1.2,4.9,4.2,7.3,9.2,7.4C51.4,251.2,54.6,251.2,57.9,251.2z M50,226.7c0,2.6,0,5.3,0,7.9
			c0,1.1-0.3,1.7-1.6,1.7c-2.4,0-4.7,0-7.1,0c-1,0-1.7-0.4-2-1.3c-2-5.5-2-10.9,0-16.4c0.4-1,1-1.4,2.1-1.4c2.3,0,4.6,0.1,6.9,0
			c1.3,0,1.7,0.6,1.7,1.8C50,221.5,50,224.1,50,226.7z"/>
		<g class="st1">
			<path class="st2" d="M59.9,226.8c-0.2,0.3-0.5,0.6-0.8,0.8s-0.9,0.3-1.4,0.3h-1v2.5h-1.7v-6.9h2.7c0.5,0,1,0.1,1.4,0.3
				c0.4,0.2,0.7,0.5,0.9,0.8c0.2,0.3,0.3,0.7,0.3,1.1C60.2,226.1,60.1,226.5,59.9,226.8z M58.2,226.4c0.2-0.2,0.2-0.4,0.2-0.6
				c0-0.3-0.1-0.5-0.2-0.6c-0.2-0.2-0.4-0.2-0.7-0.2h-0.9v1.7h0.9C57.8,226.6,58.1,226.5,58.2,226.4z"/>
			<path class="st2" d="M64.6,230.4l-1.4-2.6h-0.4v2.6H61v-6.9h2.8c0.5,0,1,0.1,1.4,0.3c0.4,0.2,0.7,0.5,0.9,0.8
				c0.2,0.3,0.3,0.7,0.3,1.1c0,0.5-0.1,0.9-0.4,1.2s-0.6,0.6-1.1,0.8l1.6,2.7H64.6z M62.7,226.6h1c0.3,0,0.5-0.1,0.7-0.2
				c0.2-0.2,0.2-0.4,0.2-0.6c0-0.3-0.1-0.5-0.2-0.6s-0.4-0.2-0.7-0.2h-1V226.6z"/>
			<path class="st2" d="M69.1,223.5v6.9h-1.7v-6.9H69.1z"/>
			<path class="st2" d="M76.8,223.5l-2.4,6.9h-2.1l-2.4-6.9h1.8l1.7,5.2l1.7-5.2H76.8z"/>
			<path class="st2" d="M81.8,229.2h-2.6l-0.4,1.2h-1.8l2.5-6.9h1.9l2.5,6.9h-1.8L81.8,229.2z M81.4,227.9l-0.9-2.5l-0.8,2.5H81.4z"
				/>
			<path class="st2" d="M89.7,223.5v1.3h-1.8v5.6h-1.7v-5.6h-1.8v-1.3H89.7z"/>
			<path class="st2" d="M92.2,224.8v1.4h2.2v1.3h-2.2v1.5h2.5v1.3h-4.2v-6.9h4.2v1.3H92.2z"/>
		</g>
	</g>
</g>
<g>
	<g>
		<path class="st3" d="M399.4,225.2H210.6c-7.8,0-14.2-6.3-14.2-14.2V91c0-7.8,6.3-14.2,14.2-14.2h188.8c7.8,0,14.2,6.3,14.2,14.2
			v120C413.5,218.9,407.2,225.2,399.4,225.2z"/>
		<path class="st3" d="M415.8,177h-70c-2.8,0-5.1-2.3-5.1-5.1v-41.8c0-2.8,2.3-5.1,5.1-5.1h70c2.8,0,5.1,2.3,5.1,5.1v41.8
			C420.9,174.8,418.6,177,415.8,177z"/>
	</g>
	<g class="st1">
		<path d="M264.7,104.1c1.8-1.5,3.2-2.7,4.3-3.7c1-1,1.9-2,2.6-3c0.7-1,1.1-2.1,1.1-3.1c0-0.8-0.2-1.3-0.5-1.8
			c-0.3-0.4-0.9-0.6-1.6-0.6c-0.7,0-1.2,0.3-1.6,0.8c-0.4,0.5-0.6,1.3-0.6,2.2h-4.5c0-1.6,0.4-2.9,1-3.9c0.6-1,1.5-1.8,2.5-2.3
			c1-0.5,2.2-0.7,3.5-0.7c2.2,0,3.8,0.6,4.9,1.7c1.1,1.1,1.7,2.6,1.7,4.4c0,2-0.7,3.8-2,5.5s-3,3.3-5.1,4.9h7.4v3.8h-13.8v-3.5
			C264.5,104.3,264.8,104.1,264.7,104.1z"/>
		<path d="M292.1,97v3.9h-12.1V97H292.1z"/>
		<path d="M299.1,107.9c-1.2-0.6-2.1-1.6-2.8-2.8s-1-2.6-1-4.2c0-1.6,0.3-3,1-4.2c0.7-1.2,1.7-2.1,2.9-2.8c1.2-0.6,2.6-1,4.1-1
			s2.9,0.3,4.1,1c1.2,0.6,2.2,1.6,2.9,2.8c0.7,1.2,1,2.6,1,4.2c0,1.6-0.4,3-1.1,4.2c-0.7,1.2-1.7,2.1-2.9,2.8c-1.2,0.6-2.6,1-4.1,1
			S300.3,108.5,299.1,107.9z M305.5,103.8c0.6-0.7,1-1.6,1-2.8c0-1.2-0.3-2.2-0.9-2.8c-0.6-0.7-1.4-1-2.3-1c-0.9,0-1.7,0.3-2.3,1
			c-0.6,0.7-0.9,1.6-0.9,2.8c0,1.2,0.3,2.2,0.9,2.8c0.6,0.7,1.3,1,2.2,1S304.8,104.4,305.5,103.8z"/>
		<path d="M321.4,97.2h-2.5v11.5h-4.7V97.2h-1.7v-3.9h1.7v-0.4c0-1.9,0.5-3.3,1.6-4.3c1.1-1,2.7-1.5,4.8-1.5c0.3,0,0.6,0,0.8,0v4
			c-0.9-0.1-1.5,0.1-1.9,0.4c-0.4,0.3-0.6,0.9-0.6,1.7v0.1h2.5V97.2z"/>
		<path d="M335.5,97v3.9h-12.1V97H335.5z"/>
		<path d="M341.2,89.6c1.2-1.1,2.9-1.6,4.9-1.6c1.4,0,2.6,0.2,3.5,0.7c1,0.5,1.7,1.1,2.2,2s0.8,1.8,0.8,2.8c0,1.2-0.3,2.2-0.9,3
			s-1.3,1.3-2.1,1.6v0.1c1,0.3,1.9,0.9,2.5,1.7s0.9,1.8,0.9,3.1c0,1.1-0.3,2.1-0.8,3s-1.3,1.6-2.3,2.1c-1,0.5-2.2,0.7-3.6,0.7
			c-2.2,0-4-0.5-5.3-1.6s-2-2.7-2.1-4.9h4.6c0,0.8,0.2,1.4,0.7,1.9s1.1,0.7,1.9,0.7c0.7,0,1.3-0.2,1.7-0.6c0.4-0.4,0.6-1,0.6-1.6
			c0-0.9-0.3-1.5-0.8-1.9c-0.6-0.4-1.5-0.6-2.7-0.6h-0.9v-3.8h0.9c0.9,0,1.7-0.2,2.3-0.5c0.6-0.3,0.9-0.9,0.9-1.7
			c0-0.7-0.2-1.2-0.6-1.5S346.7,92,346,92c-0.7,0-1.2,0.2-1.6,0.6c-0.3,0.4-0.5,0.9-0.6,1.6h-4.6C339.4,92.2,340,90.7,341.2,89.6z"
			/>
	</g>
	<g class="st1">
		<path d="M275.9,196c1.1,1.2,1.7,2.8,1.7,4.8v9h-4.7v-8.3c0-1-0.3-1.8-0.8-2.3c-0.5-0.5-1.2-0.8-2.2-0.8c-0.9,0-1.6,0.3-2.2,0.8
			c-0.5,0.5-0.8,1.3-0.8,2.3v8.3h-4.7v-8.3c0-1-0.3-1.8-0.8-2.3c-0.5-0.5-1.2-0.8-2.2-0.8c-0.9,0-1.6,0.3-2.2,0.8
			c-0.5,0.5-0.8,1.3-0.8,2.3v8.3h-4.7v-15.4h4.7v1.9c0.5-0.6,1.1-1.2,1.9-1.5c0.8-0.4,1.6-0.6,2.6-0.6c1.2,0,2.2,0.2,3.1,0.7
			c0.9,0.5,1.6,1.2,2.1,2.1c0.5-0.8,1.3-1.5,2.2-2.1s1.9-0.8,3-0.8C273.2,194.2,274.7,194.8,275.9,196z"/>
		<path d="M296,194.4v15.4h-4.7v-2.1c-0.5,0.7-1.1,1.2-1.9,1.6s-1.7,0.6-2.7,0.6c-1.2,0-2.2-0.3-3.1-0.8c-0.9-0.5-1.6-1.3-2.1-2.3
			c-0.5-1-0.7-2.2-0.7-3.5v-9h4.7v8.3c0,1,0.3,1.8,0.8,2.4c0.5,0.6,1.2,0.9,2.1,0.9c0.9,0,1.6-0.3,2.2-0.9c0.5-0.6,0.8-1.4,0.8-2.4
			v-8.3H296z"/>
		<path d="M304.1,189.4v20.4h-4.7v-20.4H304.1z"/>
		<path d="M316.1,205.8v4h-2.4c-1.7,0-3-0.4-4-1.3c-1-0.8-1.4-2.2-1.4-4.1v-6.1h-1.9v-3.9h1.9v-3.7h4.7v3.7h3.1v3.9H313v6.2
			c0,0.5,0.1,0.8,0.3,1c0.2,0.2,0.6,0.3,1.1,0.3H316.1z"/>
		<path d="M319.1,192.1c-0.5-0.5-0.8-1.1-0.8-1.8c0-0.7,0.3-1.3,0.8-1.8c0.5-0.5,1.2-0.7,2-0.7c0.8,0,1.5,0.2,2,0.7
			c0.5,0.5,0.8,1.1,0.8,1.8c0,0.7-0.3,1.3-0.8,1.8c-0.5,0.5-1.2,0.7-2,0.7C320.3,192.8,319.6,192.5,319.1,192.1z M323.4,194.4v15.4
			h-4.7v-15.4H323.4z"/>
		<path d="M329.5,209.3c-1-0.5-1.9-1.1-2.5-1.9c-0.6-0.8-0.9-1.7-1-2.7h4.7c0.1,0.5,0.3,1,0.7,1.3s1,0.5,1.6,0.5
			c0.6,0,1-0.1,1.4-0.3c0.3-0.2,0.5-0.5,0.5-0.9c0-0.4-0.2-0.8-0.7-1s-1.2-0.4-2.2-0.7c-1.1-0.3-2-0.5-2.8-0.8
			c-0.7-0.3-1.4-0.7-1.9-1.3s-0.8-1.4-0.8-2.5c0-0.9,0.2-1.7,0.7-2.4c0.5-0.7,1.2-1.3,2.1-1.7c0.9-0.4,2.1-0.6,3.4-0.6
			c1.9,0,3.4,0.5,4.6,1.4c1.1,1,1.7,2.2,1.9,3.8h-4.3c-0.1-0.5-0.3-1-0.7-1.3s-0.9-0.5-1.6-0.5c-0.6,0-1,0.1-1.3,0.3
			s-0.4,0.5-0.4,0.9c0,0.4,0.2,0.8,0.7,1c0.5,0.2,1.2,0.4,2.2,0.7c1.1,0.3,2.1,0.6,2.8,0.9c0.7,0.3,1.3,0.7,1.9,1.4
			c0.5,0.6,0.8,1.5,0.8,2.5c0,0.9-0.3,1.7-0.8,2.4c-0.5,0.7-1.2,1.3-2.2,1.7c-0.9,0.4-2,0.6-3.3,0.6
			C331.8,210,330.6,209.7,329.5,209.3z"/>
		<path d="M342.6,192.1c-0.5-0.5-0.8-1.1-0.8-1.8c0-0.7,0.3-1.3,0.8-1.8c0.5-0.5,1.2-0.7,2-0.7c0.8,0,1.5,0.2,2,0.7
			c0.5,0.5,0.8,1.1,0.8,1.8c0,0.7-0.3,1.3-0.8,1.8c-0.5,0.5-1.2,0.7-2,0.7C343.8,192.8,343.1,192.5,342.6,192.1z M346.9,194.4v15.4
			h-4.7v-15.4H346.9z"/>
		<path d="M359,194.8c0.8,0.4,1.4,1,1.9,1.7v-2.2h4.7v15.3c0,1.4-0.3,2.7-0.8,3.8c-0.6,1.1-1.4,2.1-2.6,2.7c-1.1,0.7-2.6,1-4.3,1
			c-2.3,0-4.1-0.5-5.5-1.6c-1.4-1.1-2.2-2.5-2.4-4.4h4.7c0.1,0.6,0.5,1.1,1,1.4c0.6,0.3,1.2,0.5,2,0.5c1,0,1.7-0.3,2.3-0.8
			c0.6-0.6,0.9-1.5,0.9-2.7v-2.2c-0.5,0.7-1.1,1.3-1.9,1.7s-1.8,0.7-2.8,0.7c-1.3,0-2.4-0.3-3.4-1c-1-0.7-1.8-1.6-2.4-2.8
			s-0.9-2.6-0.9-4.2c0-1.6,0.3-3,0.9-4.2c0.6-1.2,1.4-2.1,2.4-2.8c1-0.6,2.2-1,3.4-1C357.3,194.2,358.2,194.4,359,194.8z
			 M359.9,199.3c-0.7-0.7-1.4-1-2.4-1c-0.9,0-1.7,0.3-2.4,1s-1,1.6-1,2.8c0,1.2,0.3,2.1,1,2.8c0.7,0.7,1.4,1,2.4,1
			c0.9,0,1.7-0.3,2.4-1c0.7-0.7,1-1.6,1-2.8C360.9,200.9,360.6,200,359.9,199.3z"/>
	</g>
</g>
<g>
	<line class="st4" x1="308.7" y1="43.5" x2="308.7" y2="1.4"/>
	<line class="st4" x1="308.7" y1="301.9" x2="308.7" y2="259.9"/>
</g>
<g>
	<line class="st4" x1="187.7" y1="62.1" x2="170.9" y2="45.3"/>
	<line class="st4" x1="446.4" y1="258" x2="429.6" y2="241.2"/>
	<line class="st4" x1="429.6" y1="62.1" x2="446.4" y2="45.3"/>
	<line class="st4" x1="170.9" y1="258" x2="187.7" y2="241.2"/>
</g>
</svg>
