<?xml version="1.0" encoding="utf-8"?>
<!-- Generator: Adobe Illustrator 23.0.6, SVG Export Plug-In . SVG Version: 6.00 Build 0)  -->
<svg version="1.1" id="Lag_1" xmlns="http://www.w3.org/2000/svg" xmlns:xlink="http://www.w3.org/1999/xlink" x="0px" y="0px"
	 viewBox="0 0 422.7 303.3" enable-background="new 0 0 422.7 303.3" xml:space="preserve">
<g>
	<g>
		<circle fill="none" stroke="#000000" stroke-width="2.8346" stroke-miterlimit="10" cx="22.9" cy="39.6" r="21.5"/>
		<path fill="#026634" d="M48.1,81.4c2.8,0.9,5.7,1.8,8.5,2.7c4.2,1.3,9.5-1.2,11.3-5.3c0.2-0.5,0.4-1.1,0.7-1.6
			c0.6-1.1,1.6-1.8,2.9-1.7c1.3,0.2,2.4,0.8,2.9,2.1c0.3,0.9,0.8,1.7,1.9,1.7c1.2,0.1,2-0.6,2.6-1.6c0.8-1.6,2-2.2,3.6-1.6
			c1.1,0.4,2.1,0.3,3.1-0.1c1.3-0.5,2.6-1,3.9-1.5c1.6-0.7,3.1,0.1,4,1.6c1.2,2,2.2,4.3,4.7,4.9c0.8,0.2,1.2,0.9,1.6,1.5
			c0.7,0.9,1.4,1.2,2.6,0.7c1.8-0.7,3.7-1.2,5.3,0.8c0.7,0.9,1.7,0.5,2.6,0.1c2.2-1,4.2-1.2,5.7,1.1c0.3,0.5,0.9,0.3,1.3,0.2
			c2.6-0.8,5.2-1.7,7.7-3c1.1-0.6,1.5-1.3,1.3-2.5c-0.3-1.4-0.6-2.7-1-4.1c-0.4-1.1-1-2-2.2-2.4c-11.2-4-22.5-8-33.7-12
			C88.7,61.1,88,61,87.2,61c-2.4,0.1-3.1-0.9-2.5-3.1c0.3-0.9,0.9-1.8-0.1-2.7s-1.9-1.7-3.6-1.1c-2.6,1-4.5-0.9-3.8-3.7
			c0.5-2,0.6-4,0.1-5.9c-0.9-3.2-3.2-5.2-6.3-6.2c-6-1.7-12-3.5-17.9-5.5c-3.6-1.2-6.5-0.1-8.9,2.5c-1.1,1.2-2.2,2.2-3.6,3.1
			C33.5,42.9,30.4,49.7,30,57.9c-0.2,3.3,0.1,6.5,2.1,9.3c0.3,0.4,0.2,0.9,0.2,1.4c-0.3,5,1.8,8.3,6.6,9.8
			C41.9,79.4,45,80.4,48.1,81.4z M48,55.6c-0.8,2.5-1.6,5-2.4,7.6c-0.3,1.1-0.8,1.5-2,1.1c-2.2-0.8-4.5-1.5-6.8-2.1
			c-1-0.3-1.5-0.9-1.5-1.9c-0.3-5.8,1.4-11,4.9-15.7c0.6-0.8,1.4-1,2.4-0.7c2.2,0.7,4.4,1.5,6.6,2.1c1.3,0.4,1.4,1,1,2.2
			C49.5,50.7,48.8,53.2,48,55.6z"/>
		<g enable-background="new    ">
			<path fill="#FFFFFF" d="M57.4,58.8c-0.3,0.3-0.6,0.4-1,0.5c-0.4,0.1-0.9,0-1.4-0.1l-1-0.3l-0.7,2.4l-1.6-0.5l2.1-6.6l2.6,0.8
				c0.5,0.2,0.9,0.4,1.2,0.7c0.3,0.3,0.5,0.6,0.6,1c0.1,0.4,0.1,0.8-0.1,1.2C57.8,58.2,57.6,58.5,57.4,58.8z M55.9,57.8
				c0.2-0.1,0.3-0.3,0.4-0.5c0.1-0.3,0.1-0.5,0-0.7c-0.1-0.2-0.3-0.3-0.6-0.4l-0.9-0.3l-0.5,1.6l0.9,0.3
				C55.5,57.9,55.7,57.9,55.9,57.8z"/>
			<path fill="#FFFFFF" d="M61,56.4l-1.2,3.9c-0.1,0.4-0.1,0.7,0,1c0.1,0.3,0.4,0.5,0.8,0.6c0.4,0.1,0.7,0.1,1,0
				c0.3-0.1,0.5-0.4,0.6-0.8l1.2-3.9l1.6,0.5l-1.2,3.9c-0.2,0.6-0.5,1-0.8,1.4c-0.4,0.3-0.8,0.5-1.3,0.6c-0.5,0.1-1,0-1.5-0.1
				c-0.5-0.2-0.9-0.4-1.3-0.7c-0.3-0.3-0.6-0.7-0.7-1.2c-0.1-0.5-0.1-1,0.1-1.6l1.2-3.9L61,56.4z"/>
			<path fill="#FFFFFF" d="M69.8,63.3c0.1,0.4,0.1,0.7,0,1.1c-0.2,0.6-0.5,0.9-1,1.1s-1.1,0.2-1.8,0l-3.1-1l2.1-6.6l3,0.9
				c0.7,0.2,1.1,0.5,1.4,1c0.3,0.4,0.3,0.9,0.2,1.4c-0.1,0.4-0.3,0.7-0.6,0.9c-0.3,0.2-0.6,0.3-1,0.3C69.4,62.7,69.6,63,69.8,63.3z
				 M67.8,64.2c0.2-0.1,0.3-0.2,0.4-0.5c0.1-0.2,0.1-0.4-0.1-0.6c-0.1-0.2-0.3-0.3-0.6-0.4l-1.2-0.4L66,63.8l1.2,0.4
				C67.4,64.3,67.7,64.3,67.8,64.2z M66.8,61.2l1,0.3c0.3,0.1,0.5,0.1,0.7,0c0.2-0.1,0.3-0.2,0.4-0.4c0.1-0.2,0.1-0.4,0-0.6
				c-0.1-0.2-0.3-0.3-0.5-0.4l-1-0.3L66.8,61.2z"/>
			<path fill="#FFFFFF" d="M72.1,65.8l2.1,0.7l-0.4,1.2l-3.7-1.2l2.1-6.6l1.6,0.5L72.1,65.8z"/>
			<path fill="#FFFFFF" d="M78.3,61.9l-2.1,6.6L74.6,68l2.1-6.6L78.3,61.9z"/>
			<path fill="#FFFFFF" d="M79.1,63.9c0.4-0.4,1-0.7,1.6-0.8c0.6-0.1,1.2-0.1,1.8,0.1c0.8,0.2,1.4,0.7,1.8,1.3s0.6,1.3,0.6,2
				l-1.8-0.6c0-0.3-0.2-0.6-0.4-0.8s-0.4-0.4-0.8-0.5c-0.5-0.2-0.9-0.1-1.4,0.1C80.3,65,80,65.4,79.8,66s-0.2,1.1,0,1.5
				c0.2,0.4,0.5,0.7,1,0.9c0.3,0.1,0.6,0.1,0.9,0s0.5-0.2,0.8-0.5l1.8,0.6c-0.4,0.7-1,1.1-1.6,1.3c-0.7,0.2-1.4,0.2-2.2,0
				c-0.6-0.2-1.2-0.5-1.6-1s-0.7-1-0.8-1.6c-0.1-0.6-0.1-1.2,0.1-1.9C78.4,64.8,78.7,64.3,79.1,63.9z"/>
		</g>
	</g>
	<g>
		<circle fill="none" stroke="#000000" stroke-width="2.8346" stroke-miterlimit="10" cx="22.9" cy="122.5" r="21.5"/>
		<path fill="#026634" d="M48.1,164.2c2.8,0.9,5.7,1.8,8.5,2.7c4.2,1.3,9.5-1.2,11.3-5.3c0.2-0.5,0.4-1.1,0.7-1.6
			c0.6-1.1,1.6-1.8,2.9-1.7c1.3,0.2,2.4,0.8,2.9,2.1c0.3,0.9,0.8,1.7,1.9,1.7c1.2,0.1,2-0.6,2.6-1.6c0.8-1.6,2-2.2,3.6-1.6
			c1.1,0.4,2.1,0.3,3.1-0.1c1.3-0.5,2.6-1,3.9-1.5c1.6-0.7,3.1,0.1,4,1.6c1.2,2,2.2,4.3,4.7,4.9c0.8,0.2,1.2,0.9,1.6,1.5
			c0.7,0.9,1.4,1.2,2.6,0.7c1.8-0.7,3.7-1.2,5.3,0.8c0.7,0.9,1.7,0.5,2.6,0.1c2.2-1,4.2-1.2,5.7,1.1c0.3,0.5,0.9,0.3,1.3,0.2
			c2.6-0.8,5.2-1.7,7.7-3c1.1-0.6,1.5-1.3,1.3-2.5c-0.3-1.4-0.6-2.7-1-4.1c-0.4-1.1-1-2-2.2-2.4c-11.2-4-22.5-8-33.7-12
			c-0.7-0.3-1.4-0.4-2.2-0.4c-2.4,0.1-3.1-0.9-2.5-3.1c0.3-0.9,0.9-1.8-0.1-2.7s-1.9-1.7-3.6-1.1c-2.6,1-4.5-0.9-3.8-3.7
			c0.5-2,0.6-4,0.1-5.9c-0.9-3.2-3.2-5.2-6.3-6.2c-5.9-1.8-11.9-3.6-17.8-5.6c-3.6-1.2-6.5-0.1-8.9,2.5c-1.1,1.2-2.2,2.2-3.6,3.1
			c-7.1,4.5-10.2,11.3-10.6,19.5c-0.2,3.3,0.1,6.5,2.1,9.3c0.3,0.4,0.2,0.9,0.2,1.4c-0.3,5,1.8,8.3,6.6,9.8
			C41.9,162.3,45,163.2,48.1,164.2z M48,138.4c-0.8,2.5-1.6,5-2.4,7.6c-0.3,1.1-0.8,1.5-2,1.1c-2.2-0.8-4.5-1.5-6.8-2.1
			c-1-0.3-1.5-0.9-1.5-1.9c-0.3-5.8,1.4-11,4.9-15.7c0.6-0.8,1.4-1,2.4-0.7c2.2,0.7,4.4,1.5,6.6,2.1c1.3,0.4,1.4,1,1,2.2
			C49.5,133.5,48.8,136,48,138.4z"/>
		<g enable-background="new    ">
			<path fill="#FFFFFF" d="M57.4,141.6c-0.3,0.3-0.6,0.4-1,0.5s-0.9,0-1.4-0.1l-1-0.3l-0.7,2.4l-1.6-0.5l2.1-6.6l2.6,0.8
				c0.5,0.2,0.9,0.4,1.2,0.7s0.5,0.6,0.6,1c0.1,0.4,0.1,0.8-0.1,1.2C57.8,141,57.6,141.3,57.4,141.6z M55.9,140.6
				c0.2-0.1,0.3-0.3,0.4-0.5c0.1-0.3,0.1-0.5,0-0.7c-0.1-0.2-0.3-0.3-0.6-0.4l-0.9-0.3l-0.5,1.6l0.9,0.3
				C55.5,140.7,55.7,140.7,55.9,140.6z"/>
			<path fill="#FFFFFF" d="M61,139.3l-1.2,3.9c-0.1,0.4-0.1,0.7,0,1c0.1,0.3,0.4,0.5,0.8,0.6c0.4,0.1,0.7,0.1,1,0
				c0.3-0.1,0.5-0.4,0.6-0.8l1.2-3.9l1.6,0.5l-1.2,3.9c-0.2,0.6-0.5,1-0.8,1.4c-0.4,0.3-0.8,0.5-1.3,0.6c-0.5,0.1-1,0-1.5-0.1
				s-1-0.4-1.3-0.7c-0.3-0.3-0.6-0.7-0.7-1.2c-0.1-0.5-0.1-1,0.1-1.6l1.2-3.9L61,139.3z"/>
			<path fill="#FFFFFF" d="M69.8,146.2c0.1,0.4,0.1,0.7,0,1.1c-0.2,0.5-0.5,0.9-1,1.1c-0.5,0.2-1.1,0.2-1.8,0l-3.1-1l2.1-6.6l3,0.9
				c0.7,0.2,1.1,0.5,1.4,1c0.3,0.4,0.3,0.9,0.2,1.4c-0.1,0.4-0.3,0.7-0.6,0.9c-0.3,0.2-0.6,0.3-1,0.3
				C69.4,145.5,69.6,145.8,69.8,146.2z M67.8,147c0.2-0.1,0.3-0.2,0.4-0.5c0.1-0.2,0.1-0.4-0.1-0.6c-0.1-0.2-0.3-0.3-0.6-0.4
				l-1.2-0.4l-0.5,1.5l1.2,0.4C67.4,147.1,67.7,147.1,67.8,147z M66.8,144l1,0.3c0.3,0.1,0.5,0.1,0.7,0c0.2-0.1,0.3-0.2,0.4-0.4
				c0.1-0.2,0.1-0.4,0-0.6c-0.1-0.2-0.3-0.3-0.5-0.4l-1-0.3L66.8,144z"/>
			<path fill="#FFFFFF" d="M72.1,148.6l2.1,0.7l-0.4,1.2l-3.7-1.2l2.1-6.6l1.6,0.5L72.1,148.6z"/>
			<path fill="#FFFFFF" d="M78.3,144.7l-2.1,6.6l-1.6-0.5l2.1-6.6L78.3,144.7z"/>
			<path fill="#FFFFFF" d="M79.1,146.7c0.4-0.4,1-0.7,1.6-0.8c0.6-0.1,1.2-0.1,1.8,0.1c0.8,0.2,1.4,0.7,1.8,1.3
				c0.4,0.6,0.6,1.3,0.6,2l-1.8-0.6c0-0.3-0.2-0.6-0.4-0.8c-0.2-0.2-0.4-0.4-0.8-0.5c-0.5-0.2-0.9-0.1-1.4,0.1
				c-0.4,0.2-0.7,0.7-0.9,1.2c-0.2,0.6-0.2,1.1,0,1.5c0.2,0.4,0.5,0.7,1,0.9c0.3,0.1,0.6,0.1,0.9,0c0.3-0.1,0.5-0.2,0.8-0.5l1.8,0.6
				c-0.4,0.7-1,1.1-1.6,1.3c-0.7,0.2-1.4,0.2-2.2,0c-0.6-0.2-1.2-0.5-1.6-1c-0.4-0.4-0.7-1-0.8-1.6c-0.1-0.6-0.1-1.2,0.1-1.9
				C78.4,147.6,78.7,147.1,79.1,146.7z"/>
		</g>
	</g>
	<g>
		<circle fill="none" stroke="#000000" stroke-width="2.8346" stroke-miterlimit="10" cx="22.9" cy="205.3" r="21.5"/>
		<path fill="#026634" d="M48.1,247c2.8,0.9,5.7,1.8,8.5,2.7c4.2,1.3,9.5-1.2,11.3-5.3c0.2-0.5,0.4-1.1,0.7-1.6
			c0.6-1.1,1.6-1.8,2.9-1.7c1.3,0.2,2.4,0.8,2.9,2.1c0.3,0.9,0.8,1.7,1.9,1.7c1.2,0.1,2-0.6,2.6-1.6c0.8-1.6,2-2.2,3.6-1.6
			c1.1,0.4,2.1,0.3,3.1-0.1c1.3-0.5,2.6-1,3.9-1.5c1.6-0.7,3.1,0.1,4,1.6c1.2,2,2.2,4.3,4.7,4.9c0.8,0.2,1.2,0.9,1.6,1.5
			c0.7,0.9,1.4,1.2,2.6,0.7c1.8-0.7,3.7-1.2,5.3,0.8c0.7,0.9,1.7,0.5,2.6,0.1c2.2-1,4.2-1.2,5.7,1.1c0.3,0.5,0.9,0.3,1.3,0.2
			c2.6-0.8,5.2-1.7,7.7-3c1.1-0.6,1.5-1.3,1.3-2.5c-0.3-1.4-0.6-2.7-1-4.1c-0.4-1.1-1-2-2.2-2.4c-11.2-4-22.5-8-33.7-12
			c-0.7-0.3-1.4-0.4-2.2-0.4c-2.4,0.1-3.1-0.9-2.5-3.1c0.3-0.9,0.9-1.8-0.1-2.7s-1.9-1.7-3.6-1.1c-2.6,1-4.5-0.9-3.8-3.7
			c0.5-2,0.6-4,0.1-5.9c-0.9-3.2-3.2-5.2-6.3-6.2c-5.9-1.8-11.9-3.6-17.8-5.6c-3.6-1.2-6.5-0.1-8.9,2.5c-1.1,1.2-2.2,2.2-3.6,3.1
			c-7.1,4.5-10.2,11.3-10.6,19.5c-0.2,3.3,0.1,6.5,2.1,9.3c0.3,0.4,0.2,0.9,0.2,1.4c-0.3,5,1.8,8.3,6.6,9.8
			C41.9,245.1,45,246,48.1,247z M48,221.2c-0.8,2.5-1.6,5-2.4,7.6c-0.3,1.1-0.8,1.5-2,1.1c-2.2-0.8-4.5-1.5-6.8-2.1
			c-1-0.3-1.5-0.9-1.5-1.9c-0.3-5.8,1.4-11,4.9-15.7c0.6-0.8,1.4-1,2.4-0.7c2.2,0.7,4.4,1.5,6.6,2.1c1.3,0.4,1.4,1,1,2.2
			C49.5,216.3,48.8,218.8,48,221.2z"/>
		<g enable-background="new    ">
			<path fill="#FFFFFF" d="M57.4,224.4c-0.3,0.3-0.6,0.4-1,0.5c-0.4,0.1-0.9,0-1.4-0.1l-1-0.3l-0.7,2.4l-1.6-0.5l2.1-6.6l2.6,0.8
				c0.5,0.2,0.9,0.4,1.2,0.7c0.3,0.3,0.5,0.6,0.6,1c0.1,0.4,0.1,0.8-0.1,1.2C57.8,223.8,57.6,224.1,57.4,224.4z M55.9,223.4
				c0.2-0.1,0.3-0.3,0.4-0.5c0.1-0.3,0.1-0.5,0-0.7c-0.1-0.2-0.3-0.3-0.6-0.4l-0.9-0.3l-0.5,1.6l0.9,0.3
				C55.5,223.5,55.7,223.5,55.9,223.4z"/>
			<path fill="#FFFFFF" d="M61,222.1l-1.2,3.9c-0.1,0.4-0.1,0.7,0,1c0.1,0.3,0.4,0.5,0.8,0.6c0.4,0.1,0.7,0.1,1,0
				c0.3-0.1,0.5-0.4,0.6-0.8l1.2-3.9l1.6,0.5l-1.2,3.9c-0.2,0.6-0.5,1-0.8,1.4c-0.4,0.3-0.8,0.5-1.3,0.6s-1,0-1.5-0.1
				s-1-0.4-1.3-0.7c-0.3-0.3-0.6-0.7-0.7-1.2c-0.1-0.5-0.1-1,0.1-1.6l1.2-3.9L61,222.1z"/>
			<path fill="#FFFFFF" d="M69.8,229c0.1,0.4,0.1,0.7,0,1.1c-0.2,0.5-0.5,0.9-1,1.1c-0.5,0.2-1.1,0.2-1.8,0l-3.1-1l2.1-6.6l3,0.9
				c0.7,0.2,1.1,0.5,1.4,1c0.3,0.4,0.3,0.9,0.2,1.4c-0.1,0.4-0.3,0.7-0.6,0.9c-0.3,0.2-0.6,0.3-1,0.3
				C69.4,228.3,69.6,228.6,69.8,229z M67.8,229.8c0.2-0.1,0.3-0.2,0.4-0.5c0.1-0.2,0.1-0.4-0.1-0.6c-0.1-0.2-0.3-0.3-0.6-0.4
				l-1.2-0.4l-0.5,1.5l1.2,0.4C67.4,229.9,67.7,229.9,67.8,229.8z M66.8,226.8l1,0.3c0.3,0.1,0.5,0.1,0.7,0s0.3-0.2,0.4-0.4
				c0.1-0.2,0.1-0.4,0-0.6c-0.1-0.2-0.3-0.3-0.5-0.4l-1-0.3L66.8,226.8z"/>
			<path fill="#FFFFFF" d="M72.1,231.5l2.1,0.7l-0.4,1.2l-3.7-1.2l2.1-6.6l1.6,0.5L72.1,231.5z"/>
			<path fill="#FFFFFF" d="M78.3,227.5l-2.1,6.6l-1.6-0.5l2.1-6.6L78.3,227.5z"/>
			<path fill="#FFFFFF" d="M79.1,229.5c0.4-0.4,1-0.7,1.6-0.8c0.6-0.1,1.2-0.1,1.8,0.1c0.8,0.2,1.4,0.7,1.8,1.3
				c0.4,0.6,0.6,1.3,0.6,2l-1.8-0.6c0-0.3-0.2-0.6-0.4-0.8c-0.2-0.2-0.4-0.4-0.8-0.5c-0.5-0.2-0.9-0.1-1.4,0.1
				c-0.4,0.2-0.7,0.7-0.9,1.2c-0.2,0.6-0.2,1.1,0,1.5c0.2,0.4,0.5,0.7,1,0.9c0.3,0.1,0.6,0.1,0.9,0c0.3-0.1,0.5-0.2,0.8-0.5l1.8,0.6
				c-0.4,0.7-1,1.1-1.6,1.3c-0.7,0.2-1.4,0.2-2.2,0c-0.6-0.2-1.2-0.5-1.6-1c-0.4-0.4-0.7-1-0.8-1.6c-0.1-0.6-0.1-1.2,0.1-1.9
				C78.4,230.4,78.7,229.9,79.1,229.5z"/>
		</g>
	</g>
</g>
<g>
	<g>
		<path fill="#FFFFFF" stroke="#1D1E1C" stroke-width="2.8346" stroke-miterlimit="10" d="M374.2,225.2H185.5
			c-7.8,0-14.2-6.3-14.2-14.2V91c0-7.8,6.3-14.2,14.2-14.2h188.8c7.8,0,14.2,6.3,14.2,14.2v120C388.4,218.9,382.1,225.2,374.2,225.2
			z"/>
		<path fill="#FFFFFF" stroke="#1D1E1C" stroke-width="2.8346" stroke-miterlimit="10" d="M390.7,177h-70c-2.8,0-5.1-2.3-5.1-5.1
			v-41.8c0-2.8,2.3-5.1,5.1-5.1h70c2.8,0,5.1,2.3,5.1,5.1v41.8C395.8,174.8,393.5,177,390.7,177z"/>
	</g>
	<path d="M283.4,175c-5,0-10,0-15,0c-0.3,0-0.6,0-0.9,0c-2.3-0.1-2.4-0.2-2.4-2.5c0-8.6,0-17.1,0-25.7c0-1.1,0-2,1.5-1.9
		c0.9,0,0.8-0.8,0.8-1.4c0-3-0.1-6,0-8.9c0.4-7,3.6-12.3,10.1-15.2c7.7-3.4,16.7,0.5,20.3,8.7c1,2.2,1.5,4.5,1.5,6.9
		c0,2.8,0,5.7,0,8.5c0,1,0.2,1.7,1.4,1.6c1.3-0.1,1.2,0.8,1.2,1.7c0,7,0,13.9,0,20.9c0,1.9,0,3.8,0,5.6c0,1.1-0.3,1.7-1.5,1.8
		c-4,0.3-8,0.1-12,0.2C286.8,175.1,285.1,175.1,283.4,175L283.4,175z M283.6,144.9c2.9,0,5.9,0,8.8,0c0.8,0,1.4-0.2,1.4-1.2
		c-0.1-3.3,0.2-6.6-0.2-9.9c-0.6-5.6-5-9.7-10.2-9.5c-5.1,0.1-9.5,4.7-9.7,10.2c-0.1,3,0,6.1,0,9.1c0,1.1,0.4,1.4,1.5,1.4
		C277.9,144.8,280.7,144.9,283.6,144.9z"/>
	<g enable-background="new    ">
		<path d="M239.6,104.1c1.8-1.5,3.2-2.7,4.3-3.7c1-1,1.9-2,2.6-3c0.7-1,1.1-2.1,1.1-3.1c0-0.8-0.2-1.3-0.5-1.8
			c-0.3-0.4-0.9-0.6-1.6-0.6c-0.7,0-1.2,0.3-1.6,0.8c-0.4,0.5-0.6,1.3-0.6,2.2h-4.5c0-1.6,0.4-2.9,1-3.9c0.6-1,1.5-1.8,2.5-2.3
			c1-0.5,2.2-0.7,3.5-0.7c2.2,0,3.8,0.6,4.9,1.7c1.1,1.1,1.7,2.6,1.7,4.4c0,2-0.7,3.8-2,5.5s-3,3.3-5.1,4.9h7.4v3.8h-13.8v-3.5
			C239.4,104.3,239.7,104.1,239.6,104.1z"/>
		<path d="M266.9,97v3.9h-12.1V97H266.9z"/>
		<path d="M274,107.9c-1.2-0.6-2.1-1.6-2.8-2.8c-0.7-1.2-1-2.6-1-4.2c0-1.6,0.3-3,1-4.2s1.7-2.1,2.9-2.8s2.6-1,4.1-1
			c1.5,0,2.9,0.3,4.1,1s2.2,1.6,2.9,2.8s1,2.6,1,4.2c0,1.6-0.4,3-1.1,4.2c-0.7,1.2-1.7,2.1-2.9,2.8c-1.2,0.6-2.6,1-4.1,1
			S275.2,108.5,274,107.9z M280.4,103.8c0.6-0.7,1-1.6,1-2.8c0-1.2-0.3-2.2-0.9-2.8c-0.6-0.7-1.4-1-2.3-1c-0.9,0-1.7,0.3-2.3,1
			c-0.6,0.7-0.9,1.6-0.9,2.8c0,1.2,0.3,2.2,0.9,2.8c0.6,0.7,1.3,1,2.2,1S279.7,104.4,280.4,103.8z"/>
		<path d="M296.3,97.2h-2.5v11.5h-4.7V97.2h-1.7v-3.9h1.7v-0.4c0-1.9,0.5-3.3,1.6-4.3c1.1-1,2.7-1.5,4.8-1.5c0.3,0,0.6,0,0.8,0v4
			c-0.9-0.1-1.5,0.1-1.9,0.4c-0.4,0.3-0.6,0.9-0.6,1.7v0.1h2.5V97.2z"/>
		<path d="M310.4,97v3.9h-12.1V97H310.4z"/>
		<path d="M316.1,89.6c1.2-1.1,2.9-1.6,4.9-1.6c1.4,0,2.6,0.2,3.5,0.7c1,0.5,1.7,1.1,2.2,2s0.8,1.8,0.8,2.8c0,1.2-0.3,2.2-0.9,3
			s-1.3,1.3-2.1,1.6v0.1c1,0.3,1.9,0.9,2.5,1.7s0.9,1.8,0.9,3.1c0,1.1-0.3,2.1-0.8,3s-1.3,1.6-2.3,2.1c-1,0.5-2.2,0.7-3.6,0.7
			c-2.2,0-4-0.5-5.3-1.6s-2-2.7-2.1-4.9h4.6c0,0.8,0.2,1.4,0.7,1.9s1.1,0.7,1.9,0.7c0.7,0,1.3-0.2,1.7-0.6c0.4-0.4,0.6-1,0.6-1.6
			c0-0.9-0.3-1.5-0.8-1.9s-1.5-0.6-2.7-0.6H319v-3.8h0.9c0.9,0,1.7-0.2,2.3-0.5c0.6-0.3,0.9-0.9,0.9-1.7c0-0.7-0.2-1.2-0.6-1.5
			s-0.9-0.6-1.5-0.6c-0.7,0-1.2,0.2-1.6,0.6c-0.3,0.4-0.5,0.9-0.6,1.6h-4.6C314.3,92.2,314.9,90.7,316.1,89.6z"/>
	</g>
	<g enable-background="new    ">
		<path d="M250.8,196c1.1,1.2,1.7,2.8,1.7,4.8v9h-4.7v-8.3c0-1-0.3-1.8-0.8-2.3c-0.5-0.5-1.2-0.8-2.2-0.8s-1.6,0.3-2.2,0.8
			c-0.5,0.5-0.8,1.3-0.8,2.3v8.3h-4.7v-8.3c0-1-0.3-1.8-0.8-2.3c-0.5-0.5-1.2-0.8-2.2-0.8s-1.6,0.3-2.2,0.8
			c-0.5,0.5-0.8,1.3-0.8,2.3v8.3h-4.7v-15.4h4.7v1.9c0.5-0.6,1.1-1.2,1.9-1.5c0.8-0.4,1.6-0.6,2.6-0.6c1.2,0,2.2,0.2,3.1,0.7
			c0.9,0.5,1.6,1.2,2.1,2.1c0.5-0.8,1.3-1.5,2.2-2.1c0.9-0.5,1.9-0.8,3-0.8C248.1,194.2,249.6,194.8,250.8,196z"/>
		<path d="M270.9,194.4v15.4h-4.7v-2.1c-0.5,0.7-1.1,1.2-1.9,1.6s-1.7,0.6-2.7,0.6c-1.2,0-2.2-0.3-3.1-0.8c-0.9-0.5-1.6-1.3-2.1-2.3
			c-0.5-1-0.7-2.2-0.7-3.5v-9h4.7v8.3c0,1,0.3,1.8,0.8,2.4c0.5,0.6,1.2,0.9,2.1,0.9c0.9,0,1.6-0.3,2.2-0.9c0.5-0.6,0.8-1.4,0.8-2.4
			v-8.3H270.9z"/>
		<path d="M279,189.4v20.4h-4.7v-20.4H279z"/>
		<path d="M291,205.8v4h-2.4c-1.7,0-3-0.4-4-1.3c-1-0.8-1.4-2.2-1.4-4.1v-6.1h-1.9v-3.9h1.9v-3.7h4.7v3.7h3.1v3.9h-3.1v6.2
			c0,0.5,0.1,0.8,0.3,1c0.2,0.2,0.6,0.3,1.1,0.3H291z"/>
		<path d="M294,192.1c-0.5-0.5-0.8-1.1-0.8-1.8c0-0.7,0.3-1.3,0.8-1.8c0.5-0.5,1.2-0.7,2-0.7c0.8,0,1.5,0.2,2,0.7
			c0.5,0.5,0.8,1.1,0.8,1.8c0,0.7-0.3,1.3-0.8,1.8c-0.5,0.5-1.2,0.7-2,0.7C295.2,192.8,294.5,192.5,294,192.1z M298.3,194.4v15.4
			h-4.7v-15.4H298.3z"/>
		<path d="M304.4,209.3c-1-0.5-1.9-1.1-2.5-1.9c-0.6-0.8-0.9-1.7-1-2.7h4.7c0.1,0.5,0.3,1,0.7,1.3c0.4,0.3,1,0.5,1.6,0.5
			c0.6,0,1-0.1,1.4-0.3s0.5-0.5,0.5-0.9c0-0.4-0.2-0.8-0.7-1c-0.5-0.2-1.2-0.4-2.2-0.7c-1.1-0.3-2-0.5-2.8-0.8
			c-0.7-0.3-1.4-0.7-1.9-1.3c-0.5-0.6-0.8-1.4-0.8-2.5c0-0.9,0.2-1.7,0.7-2.4c0.5-0.7,1.2-1.3,2.1-1.7c0.9-0.4,2.1-0.6,3.4-0.6
			c1.9,0,3.4,0.5,4.6,1.4c1.1,1,1.7,2.2,1.9,3.8h-4.3c-0.1-0.5-0.3-1-0.7-1.3s-0.9-0.5-1.6-0.5c-0.6,0-1,0.1-1.3,0.3
			s-0.4,0.5-0.4,0.9c0,0.4,0.2,0.8,0.7,1c0.5,0.2,1.2,0.4,2.2,0.7c1.1,0.3,2.1,0.6,2.8,0.9c0.7,0.3,1.3,0.7,1.9,1.4
			c0.5,0.6,0.8,1.5,0.8,2.5c0,0.9-0.3,1.7-0.8,2.4c-0.5,0.7-1.2,1.3-2.2,1.7c-0.9,0.4-2,0.6-3.3,0.6
			C306.6,210,305.5,209.7,304.4,209.3z"/>
		<path d="M317.4,192.1c-0.5-0.5-0.8-1.1-0.8-1.8c0-0.7,0.3-1.3,0.8-1.8c0.5-0.5,1.2-0.7,2-0.7c0.8,0,1.5,0.2,2,0.7
			c0.5,0.5,0.8,1.1,0.8,1.8c0,0.7-0.3,1.3-0.8,1.8c-0.5,0.5-1.2,0.7-2,0.7C318.6,192.8,318,192.5,317.4,192.1z M321.8,194.4v15.4
			h-4.7v-15.4H321.8z"/>
		<path d="M333.9,194.8c0.8,0.4,1.4,1,1.9,1.7v-2.2h4.7v15.3c0,1.4-0.3,2.7-0.8,3.8c-0.6,1.1-1.4,2.1-2.6,2.7c-1.1,0.7-2.6,1-4.3,1
			c-2.3,0-4.1-0.5-5.5-1.6c-1.4-1.1-2.2-2.5-2.4-4.4h4.7c0.1,0.6,0.5,1.1,1,1.4c0.5,0.3,1.2,0.5,2,0.5c1,0,1.7-0.3,2.3-0.8
			c0.6-0.6,0.9-1.5,0.9-2.7v-2.2c-0.5,0.7-1.1,1.3-1.9,1.7s-1.8,0.7-2.8,0.7c-1.3,0-2.4-0.3-3.4-1s-1.8-1.6-2.4-2.8
			s-0.9-2.6-0.9-4.2c0-1.6,0.3-3,0.9-4.2c0.6-1.2,1.4-2.1,2.4-2.8s2.2-1,3.4-1C332.1,194.2,333.1,194.4,333.9,194.8z M334.8,199.3
			c-0.7-0.7-1.4-1-2.4-1s-1.7,0.3-2.4,1s-1,1.6-1,2.8c0,1.2,0.3,2.1,1,2.8c0.7,0.7,1.4,1,2.4,1s1.7-0.3,2.4-1c0.7-0.7,1-1.6,1-2.8
			C335.8,200.9,335.5,200,334.8,199.3z"/>
	</g>
</g>
<g>
	
		<line fill="none" stroke="#000000" stroke-width="2.8346" stroke-linecap="round" stroke-miterlimit="10" x1="283.6" y1="43.5" x2="283.6" y2="1.4"/>
	
		<line fill="none" stroke="#000000" stroke-width="2.8346" stroke-linecap="round" stroke-miterlimit="10" x1="283.6" y1="301.9" x2="283.6" y2="259.9"/>
</g>
<g>
	
		<line fill="none" stroke="#000000" stroke-width="2.8346" stroke-linecap="round" stroke-miterlimit="10" x1="162.6" y1="62.1" x2="145.8" y2="45.3"/>
	
		<line fill="none" stroke="#000000" stroke-width="2.8346" stroke-linecap="round" stroke-miterlimit="10" x1="421.3" y1="258" x2="404.5" y2="241.2"/>
	
		<line fill="none" stroke="#000000" stroke-width="2.8346" stroke-linecap="round" stroke-miterlimit="10" x1="404.5" y1="62.1" x2="421.3" y2="45.3"/>
	
		<line fill="none" stroke="#000000" stroke-width="2.8346" stroke-linecap="round" stroke-miterlimit="10" x1="145.8" y1="258" x2="162.6" y2="241.2"/>
</g>
</svg>
