<?xml version="1.0" encoding="utf-8"?>
<!-- Generator: Adobe Illustrator 23.0.6, SVG Export Plug-In . SVG Version: 6.00 Build 0)  -->
<svg version="1.1" id="Lag_1" xmlns="http://www.w3.org/2000/svg" xmlns:xlink="http://www.w3.org/1999/xlink" x="0px" y="0px"
	 width="440px" height="45.2px" viewBox="0 0 440 45.2" style="enable-background:new 0 0 440 45.2;" xml:space="preserve">
<style type="text/css">
	.st0{fill:#02427D;}
</style>
<g>
	<path class="st0" d="M70.6,45.2c-2.4,0-4.5-0.3-6.6-1c-2-0.7-3.8-1.7-5.2-2.9c-1.5-1.3-2.6-2.7-3.4-4.4c-0.3-0.6-0.3-1.1,0-1.6
		s0.7-0.8,1.4-1c0.5-0.1,1-0.1,1.5,0.2s0.9,0.6,1.1,1.2c0.6,1.1,1.4,2,2.4,2.9c1.1,0.9,2.3,1.5,3.8,2s3.1,0.7,4.9,0.7
		c2,0,3.7-0.3,5.2-1c1.5-0.6,2.7-1.6,3.6-2.8s1.3-2.7,1.3-4.5c0-2.3-0.8-4.2-2.5-5.8c-1.7-1.6-4.3-2.7-7.8-3.1
		c-4.3-0.5-7.7-1.9-10.1-4c-2.4-2.2-3.7-4.8-3.7-7.9c0-2.3,0.6-4.2,1.8-5.9s2.8-2.9,5-3.8c2.1-0.9,4.5-1.4,7.2-1.4
		c2,0,3.9,0.3,5.5,1c1.7,0.6,3.1,1.5,4.3,2.5s2.2,2.2,3,3.5C83.9,8.4,84,9,83.9,9.5c-0.1,0.6-0.5,1-1,1.3c-0.6,0.3-1.1,0.3-1.7,0.1
		s-1-0.5-1.3-1.1c-0.6-0.8-1.2-1.6-2.1-2.4C77,6.6,76,6,74.8,5.6s-2.6-0.7-4.3-0.7c-2.9,0-5.3,0.6-7,1.9c-1.8,1.2-2.7,3-2.7,5.4
		c0,1.3,0.3,2.4,1,3.5s1.8,2,3.3,2.7c1.5,0.8,3.6,1.3,6.2,1.7c4.6,0.7,8,2.1,10.3,4.2c2.2,2.2,3.3,5,3.3,8.4c0,2-0.4,3.8-1.1,5.3
		c-0.7,1.6-1.7,2.8-3,3.9c-1.3,1.1-2.8,1.9-4.6,2.4C74.5,44.9,72.6,45.2,70.6,45.2z"/>
	<path class="st0" d="M107.2,44.9c-3,0-5.6-0.7-7.9-2s-4.1-3.1-5.4-5.5c-1.3-2.3-2-5-2-8s0.6-5.7,1.9-8s2.9-4.1,5.1-5.5s4.7-2,7.5-2
		s5.2,0.6,7.3,1.9c2.1,1.3,3.7,3,4.8,5.3c1.1,2.3,1.7,4.8,1.7,7.7c0,0.6-0.2,1.1-0.6,1.4c-0.4,0.4-0.8,0.5-1.4,0.5H94.7v-3.5h24
		l-2.4,1.7c0-2.1-0.4-4.1-1.2-5.8c-0.8-1.7-2-3-3.5-4s-3.3-1.4-5.3-1.4c-2.1,0-3.9,0.5-5.5,1.5s-2.8,2.4-3.7,4.1
		c-0.9,1.8-1.3,3.8-1.3,6c0,2.3,0.5,4.2,1.5,6c1,1.7,2.3,3.1,4,4.1s3.7,1.5,5.9,1.5c1.3,0,2.7-0.2,4-0.7s2.4-1,3.2-1.7
		c0.4-0.3,0.9-0.5,1.4-0.5s1,0.1,1.3,0.4c0.5,0.4,0.7,0.9,0.7,1.4s-0.2,1-0.6,1.3c-1.2,1-2.8,1.9-4.6,2.6
		C110.7,44.6,108.9,44.9,107.2,44.9z"/>
	<path class="st0" d="M140,44.9c-3,0-5.6-0.7-7.9-2c-2.3-1.3-4.1-3.1-5.4-5.5c-1.3-2.3-2-5-2-8s0.6-5.7,1.9-8
		c1.2-2.3,2.9-4.1,5.1-5.5s4.7-2,7.5-2s5.2,0.6,7.3,1.9s3.7,3,4.8,5.3s1.7,4.8,1.7,7.7c0,0.6-0.2,1.1-0.6,1.4
		c-0.4,0.4-0.9,0.5-1.4,0.5h-23.5v-3.5h24l-2.4,1.7c0-2.1-0.4-4.1-1.2-5.8s-2-3-3.5-4s-3.3-1.4-5.3-1.4c-2.1,0-3.9,0.5-5.5,1.5
		s-2.8,2.4-3.7,4.1c-0.9,1.8-1.3,3.8-1.3,6c0,2.3,0.5,4.2,1.5,6c1,1.7,2.3,3.1,4,4.1s3.7,1.5,5.9,1.5c1.3,0,2.7-0.2,4-0.7
		s2.4-1,3.2-1.7c0.4-0.3,0.9-0.5,1.4-0.5s1,0.1,1.3,0.4c0.5,0.4,0.7,0.9,0.7,1.4s-0.2,1-0.6,1.3c-1.2,1-2.8,1.9-4.6,2.6
		C143.6,44.6,141.8,44.9,140,44.9z"/>
	<path class="st0" d="M173,44.9c-2.9,0-5.5-0.7-7.9-2c-2.3-1.3-4.2-3.2-5.5-5.5s-2-5-2-7.9s0.7-5.5,2-7.9c1.3-2.3,3.1-4.2,5.3-5.5
		s4.8-2,7.6-2c2.5,0,4.7,0.5,6.7,1.6s3.6,2.4,4.8,4.2V3.6c0-0.7,0.2-1.2,0.6-1.6c0.4-0.4,0.9-0.6,1.6-0.6c0.6,0,1.1,0.2,1.6,0.6
		c0.4,0.4,0.6,0.9,0.6,1.6v26.1c-0.1,2.9-0.8,5.5-2.1,7.8s-3.2,4.1-5.5,5.5C178.4,44.2,175.8,44.9,173,44.9z M173,41
		c2.1,0,4-0.5,5.7-1.5s3-2.4,4-4.1c1-1.7,1.5-3.7,1.5-5.9s-0.5-4.1-1.5-5.9s-2.3-3.1-4-4.1S175.1,18,173,18s-4,0.5-5.7,1.5
		s-3,2.4-4,4.1c-1,1.8-1.5,3.7-1.5,5.9s0.5,4.2,1.5,5.9s2.3,3.1,4,4.1S170.9,41,173,41z"/>
	<path class="st0" d="M201,44.6c-0.6,0-1.1-0.2-1.5-0.6c-0.4-0.4-0.6-0.9-0.6-1.5V3.6c0-0.6,0.2-1.1,0.6-1.6
		c0.4-0.4,0.9-0.6,1.5-0.6s1.1,0.2,1.6,0.6c0.4,0.4,0.6,0.9,0.6,1.6v17.3h27V3.6c0-0.6,0.2-1.1,0.6-1.6c0.4-0.4,0.9-0.6,1.5-0.6
		s1.1,0.2,1.6,0.6c0.4,0.4,0.6,0.9,0.6,1.6v38.9c0,0.6-0.2,1.1-0.6,1.5c-0.4,0.4-0.9,0.6-1.6,0.6c-0.6,0-1.1-0.2-1.5-0.6
		c-0.4-0.4-0.6-0.9-0.6-1.5V24.7h-27v17.8c0,0.6-0.2,1.1-0.6,1.5S201.6,44.6,201,44.6z"/>
	<path class="st0" d="M258.4,44.9c-2.8,0-5.4-0.7-7.6-2c-2.2-1.3-4-3.2-5.3-5.5s-2-4.9-2-7.9s0.7-5.6,2-7.9s3.2-4.2,5.5-5.5
		s4.9-2,7.9-2c2.9,0,5.5,0.7,7.8,2s4.1,3.2,5.5,5.5c1.3,2.3,2,5,2.1,7.9l-1.7,1.3c0,2.7-0.6,5-1.9,7.2c-1.2,2.1-2.9,3.8-5,5
		S261,44.9,258.4,44.9z M258.8,41c2.1,0,4-0.5,5.7-1.5s3-2.4,4-4.1c1-1.8,1.5-3.7,1.5-5.9s-0.5-4.2-1.5-5.9s-2.3-3.1-4-4.1
		s-3.6-1.5-5.7-1.5s-4,0.5-5.7,1.5s-3,2.4-4,4.1s-1.5,3.7-1.5,5.9s0.5,4.1,1.5,5.9s2.3,3.1,4,4.1C254.8,40.5,256.7,41,258.8,41z
		 M272,44.6c-0.6,0-1.1-0.2-1.5-0.6c-0.4-0.4-0.6-0.9-0.6-1.5V33l1.1-4.4l3.3,0.8v13c0,0.6-0.2,1.1-0.6,1.5
		C273.2,44.4,272.6,44.6,272,44.6z"/>
	<path class="st0" d="M284.6,44.6c-0.7,0-1.2-0.2-1.6-0.6s-0.6-0.9-0.6-1.5v-26c0-0.6,0.2-1.1,0.6-1.5s0.9-0.6,1.6-0.6
		c0.6,0,1.1,0.2,1.5,0.6c0.4,0.4,0.6,0.9,0.6,1.5v26c0,0.6-0.2,1.1-0.6,1.5C285.8,44.4,285.3,44.6,284.6,44.6z M304.1,44.6
		c-0.6,0-1.1-0.2-1.6-0.6s-0.6-0.9-0.6-1.5V26.6c0-2.6-0.7-4.7-2-6.2s-3.1-2.3-5.3-2.3c-2.3,0-4.2,0.7-5.6,2.2
		c-1.5,1.5-2.2,3.4-2.2,5.8h-3c0.1-2.4,0.6-4.5,1.6-6.3s2.3-3.3,4-4.3s3.6-1.5,5.8-1.5c2.2,0,4.1,0.5,5.8,1.5c1.7,1,3,2.5,3.9,4.4
		s1.4,4.1,1.4,6.6v15.9c0,0.6-0.2,1.1-0.6,1.5C305.2,44.4,304.7,44.6,304.1,44.6z M323.4,44.6c-0.6,0-1.1-0.2-1.5-0.6
		c-0.4-0.4-0.6-0.9-0.6-1.5V26.6c0-2.6-0.7-4.7-2-6.2c-1.4-1.5-3.1-2.3-5.3-2.3c-2.3,0-4.2,0.8-5.6,2.3c-1.5,1.5-2.2,3.6-2.1,6.1
		h-3.8c0-2.5,0.6-4.6,1.6-6.5s2.5-3.3,4.3-4.4c1.8-1,3.9-1.5,6.1-1.5s4.1,0.5,5.8,1.5c1.7,1,3,2.5,3.9,4.4s1.4,4.1,1.4,6.6v15.9
		c0,0.6-0.2,1.1-0.6,1.5C324.5,44.4,324,44.6,323.4,44.6z"/>
	<path class="st0" d="M337.1,44.6c-0.7,0-1.2-0.2-1.6-0.6s-0.6-0.9-0.6-1.5v-26c0-0.6,0.2-1.1,0.6-1.5s0.9-0.6,1.6-0.6
		c0.6,0,1.1,0.2,1.5,0.6s0.6,0.9,0.6,1.5v26c0,0.6-0.2,1.1-0.6,1.5S337.7,44.6,337.1,44.6z M356.5,44.6c-0.6,0-1.1-0.2-1.5-0.6
		s-0.6-0.9-0.6-1.5V26.6c0-2.6-0.7-4.7-2-6.2s-3.1-2.3-5.3-2.3c-2.3,0-4.2,0.7-5.6,2.2c-1.5,1.5-2.2,3.4-2.2,5.8h-3
		c0.1-2.4,0.6-4.5,1.6-6.3s2.3-3.3,4-4.3s3.6-1.5,5.8-1.5c2.2,0,4.1,0.5,5.8,1.5c1.7,1,3,2.5,3.9,4.4s1.4,4.1,1.4,6.6v15.9
		c0,0.6-0.2,1.1-0.6,1.5C357.6,44.4,357.1,44.6,356.5,44.6z M375.8,44.6c-0.6,0-1.1-0.2-1.5-0.6c-0.4-0.4-0.6-0.9-0.6-1.5V26.6
		c0-2.6-0.7-4.7-2-6.2c-1.4-1.5-3.1-2.3-5.3-2.3c-2.3,0-4.2,0.8-5.6,2.3c-1.5,1.5-2.2,3.6-2.1,6.1h-3.8c0-2.5,0.6-4.6,1.6-6.5
		s2.5-3.3,4.3-4.4c1.8-1,3.9-1.5,6.1-1.5s4.1,0.5,5.8,1.5c1.7,1,3,2.5,3.9,4.4s1.4,4.1,1.4,6.6v15.9c0,0.6-0.2,1.1-0.6,1.5
		C376.9,44.4,376.4,44.6,375.8,44.6z"/>
	<path class="st0" d="M401,44.9c-3,0-5.6-0.7-7.9-2s-4.1-3.1-5.4-5.5c-1.3-2.3-2-5-2-8s0.6-5.7,1.9-8s2.9-4.1,5.1-5.5s4.7-2,7.5-2
		s5.2,0.6,7.3,1.9c2.1,1.3,3.7,3,4.8,5.3c1.1,2.3,1.7,4.8,1.7,7.7c0,0.6-0.2,1.1-0.6,1.4c-0.4,0.4-0.8,0.5-1.4,0.5h-23.5v-3.5h24
		l-2.4,1.7c0-2.1-0.4-4.1-1.2-5.8c-0.8-1.7-2-3-3.5-4s-3.3-1.4-5.3-1.4c-2.1,0-3.9,0.5-5.5,1.5s-2.8,2.4-3.7,4.1
		c-0.9,1.8-1.3,3.8-1.3,6c0,2.3,0.5,4.2,1.5,6c1,1.7,2.3,3.1,4,4.1s3.7,1.5,5.9,1.5c1.3,0,2.7-0.2,4-0.7s2.4-1,3.2-1.7
		c0.4-0.3,0.9-0.5,1.4-0.5s1,0.1,1.3,0.4c0.5,0.4,0.7,0.9,0.7,1.4s-0.2,1-0.6,1.3c-1.2,1-2.8,1.9-4.6,2.6
		C404.6,44.6,402.8,44.9,401,44.9z"/>
	<path class="st0" d="M423.4,44.6c-0.7,0-1.2-0.2-1.6-0.6s-0.6-0.9-0.6-1.5v-26c0-0.7,0.2-1.2,0.6-1.6c0.4-0.4,0.9-0.6,1.6-0.6
		s1.2,0.2,1.5,0.6c0.4,0.4,0.6,0.9,0.6,1.6v26.1c0,0.7-0.2,1.2-0.6,1.5S424.1,44.6,423.4,44.6z M423.1,26c0.1-2.3,0.7-4.3,1.8-6.1
		c1.1-1.8,2.5-3.2,4.3-4.3c1.8-1,3.7-1.5,5.8-1.5c1.7,0,3,0.2,3.9,0.7s1.3,1.2,1.1,2.1c-0.1,0.6-0.4,0.9-0.7,1.1
		c-0.4,0.2-0.8,0.3-1.3,0.2c-0.5,0-1.1-0.1-1.7-0.1c-2.1-0.2-3.9,0-5.5,0.6s-2.9,1.5-3.8,2.8s-1.4,2.7-1.4,4.5H423.1z"/>
</g>
<g>
	<path class="st0" d="M7.6,35.9L0,29.6l5.7-2.7l9.6,9.5V0H5.7C2.5,0,0,2.5,0,5.7v33.8c0,3.1,2.5,5.7,5.7,5.7h11.9L2.2,38.9L7.6,35.9
		z"/>
	<path class="st0" d="M45.2,29.5V5.7c0-3.1-2.5-5.7-5.7-5.7h-9.7v36.4l9.7-9.6L45.2,29.5z"/>
	<polygon class="st0" points="15.3,36.4 10.8,38.6 17.6,45.2 22.6,45.2 15.3,36.5 	"/>
	<polygon class="st0" points="29.9,36.4 29.9,36.5 22.6,45.2 27.6,45.2 34.5,38.6 	"/>
	<path class="st0" d="M37.7,35.9l5.4,2.9l-15.5,6.3h11.9c3.1,0,5.7-2.5,5.7-5.7v-9.9L37.7,35.9z"/>
</g>
</svg>
