<svg xmlns="http://www.w3.org/2000/svg" viewBox="0 0 242.36 242.36"><title>Aktiv 3</title><path d="M233.15.71H9.21a8.51,8.51,0,0,0-8.5,8.5V233.15a8.5,8.5,0,0,0,8.5,8.5H233.15a8.49,8.49,0,0,0,8.5-8.5V9.21A8.5,8.5,0,0,0,233.15.71ZM9.21,238.11a5,5,0,1,1,5-5A5,5,0,0,1,9.21,238.11Zm0-223.94a5,5,0,1,1,5-5A5,5,0,0,1,9.21,14.17ZM233.15,238.11a5,5,0,1,1,5-5A5,5,0,0,1,233.15,238.11Zm0-223.94a5,5,0,1,1,5-5A5,5,0,0,1,233.15,14.17Z" fill="none" stroke="#1d1d1b" stroke-miterlimit="10" stroke-width="1.42"/></svg>