<svg xmlns="http://www.w3.org/2000/svg" viewBox="0 0 242.36 381.26"><title>Aktiv 4</title><path d="M233,.71H9.35A8.64,8.64,0,0,0,.71,9.35V371.91a8.64,8.64,0,0,0,8.64,8.64H233a8.64,8.64,0,0,0,8.64-8.64V9.35A8.64,8.64,0,0,0,233,.71ZM9.21,377a5,5,0,1,1,5-5A5,5,0,0,1,9.21,377Zm0-223.94a5,5,0,1,1,5-5A5,5,0,0,1,9.21,153.07Zm0-138.9a5,5,0,1,1,5-5A5,5,0,0,1,9.21,14.17ZM233.15,377a5,5,0,1,1,5-5A5,5,0,0,1,233.15,377Zm0-223.94a5,5,0,1,1,5-5A5,5,0,0,1,233.15,153.07Zm0-138.9a5,5,0,1,1,5-5A5,5,0,0,1,233.15,14.17Z" fill="none" stroke="#1d1d1b" stroke-miterlimit="10" stroke-width="1.42"/></svg>